<svg width="40" height="40" viewBox="0 0 40 40" fill="none" xmlns="http://www.w3.org/2000/svg">
<path d="M0 20C0 31.0457 8.95431 40 20 40C31.0457 40 40 31.0457 40 20C40 8.95431 31.0457 0 20 0C8.95431 0 0 8.95431 0 20Z" fill="#333333"/>
<path d="M27.1638 29.5772C25.8716 30.7909 24.4606 30.5993 23.1024 30.0244C21.6651 29.4367 20.3464 29.4111 18.83 30.0244C16.9311 30.8165 15.929 30.5865 14.7949 29.5772C8.35994 23.1508 9.30937 13.3643 16.6147 13.0065C18.3948 13.096 19.6344 13.952 20.6761 14.0286C22.2321 13.722 23.7222 12.8404 25.3837 12.9554C27.3748 13.1087 28.8781 13.8753 29.8671 15.2551C25.7529 17.6443 26.7287 22.8953 30.5 24.3645C29.7484 26.281 28.7726 28.1846 27.1506 29.59L27.1638 29.5772V29.5772ZM20.5442 12.9299C20.3464 10.0808 22.7332 7.72997 25.476 7.5C25.8584 10.7963 22.3903 13.2493 20.5442 12.9299Z" fill="white"/>
</svg>
