<svg width="15" height="15" viewBox="0 0 15 15" fill="none" xmlns="http://www.w3.org/2000/svg">
<path d="M8.44918 7.57224L14.3009 1.73613C14.4166 1.60145 14.477 1.42822 14.4701 1.25104C14.4633 1.07386 14.3896 0.905791 14.2639 0.780413C14.1382 0.655036 13.9697 0.581586 13.792 0.574742C13.6144 0.567899 13.4407 0.628165 13.3056 0.743498L7.45388 6.57961L1.60212 0.736458C1.4692 0.603893 1.28892 0.529419 1.10094 0.529419C0.912963 0.529419 0.732684 0.603893 0.599764 0.736458C0.466844 0.869023 0.39217 1.04882 0.39217 1.23629C0.39217 1.42377 0.466844 1.60357 0.599764 1.73613L6.45859 7.57224L0.599764 13.4084C0.525871 13.4715 0.465857 13.5491 0.423487 13.6365C0.381118 13.7238 0.357308 13.8189 0.353553 13.9159C0.349798 14.0129 0.366179 14.1095 0.401667 14.1999C0.437155 14.2902 0.490984 14.3723 0.559776 14.4409C0.628567 14.5095 0.710836 14.5632 0.801418 14.5986C0.892001 14.6339 0.988941 14.6503 1.08615 14.6465C1.18337 14.6428 1.27876 14.6191 1.36633 14.5768C1.45391 14.5345 1.53178 14.4747 1.59506 14.401L7.45388 8.56488L13.3056 14.401C13.4407 14.5163 13.6144 14.5766 13.792 14.5697C13.9697 14.5629 14.1382 14.4895 14.2639 14.3641C14.3896 14.2387 14.4633 14.0706 14.4701 13.8934C14.477 13.7163 14.4166 13.543 14.3009 13.4084L8.44918 7.57224Z" fill="#ABA7AF"/>
</svg>
