<svg width="40" height="40" viewBox="0 0 40 40" fill="none" xmlns="http://www.w3.org/2000/svg">
<circle cx="19.6608" cy="19.6608" r="19.6608" fill="#3F4DE1"/>
<g clip-path="url(#clip0_372_6470)">
<path d="M19.0115 31.7393C18.7107 31.7393 18.4077 31.7273 18.103 31.7021C17.3566 31.6421 16.7233 31.0759 16.5397 30.324C16.3546 29.5661 16.663 28.8079 17.3443 28.3459C17.974 27.9188 18.3567 27.4481 18.4214 27.021C18.4552 26.7994 18.3984 26.5924 18.2539 26.406C18.0171 26.1008 17.8115 26.0505 16.7632 25.905C16.2267 25.8308 15.559 25.7381 14.6573 25.5525C12.1934 25.0448 9.4061 22.7798 9.10746 19.005C8.87854 16.1141 9.87114 13.3489 11.902 11.2189C14.2171 8.79077 17.6042 7.5049 20.9679 7.77452C23.89 8.01077 26.3618 9.3364 28.1152 11.6085C30.0748 14.1476 30.9201 17.7049 30.4335 21.3679C29.6411 27.3439 24.7137 31.7393 19.0115 31.7393ZM20.0756 9.09752C17.3569 9.09752 14.6936 10.2176 12.8248 12.1774C11.0675 14.0205 10.2079 16.4055 10.4048 18.8929C10.684 22.4224 13.3671 23.9018 14.9089 24.2194C15.7706 24.3968 16.4157 24.486 16.9343 24.558C18.0254 24.7091 18.6837 24.8006 19.2656 25.5514C19.6411 26.0355 19.7982 26.6333 19.7072 27.2333C19.6203 27.8078 19.2623 28.6646 18.0534 29.4851C17.8399 29.6303 17.7547 29.799 17.8011 29.9884C17.8475 30.1781 18.0103 30.3319 18.1795 30.3458C23.6895 30.7913 28.3912 26.8553 29.1441 21.1815C29.5811 17.8883 28.8364 14.7094 27.1007 12.4605C25.578 10.4873 23.4224 9.33527 20.8666 9.12902C20.6035 9.10802 20.339 9.09752 20.0756 9.09752ZM18.9349 15.6604C17.6318 15.6604 16.5713 14.5538 16.5713 13.194C16.5713 11.8343 17.6318 10.7276 18.9349 10.7276C20.2384 10.7276 21.2989 11.8343 21.2989 13.194C21.2989 14.5538 20.2384 15.6604 18.9349 15.6604ZM18.9349 12.0863C18.3495 12.0863 17.8733 12.5831 17.8733 13.194C17.8733 13.8049 18.3495 14.3018 18.9349 14.3018C19.5204 14.3018 19.9969 13.8049 19.9969 13.194C19.9969 12.5831 19.5207 12.0863 18.9349 12.0863ZM24.5282 17.9835C23.2252 17.9835 22.1646 16.8769 22.1646 15.5171C22.1646 14.157 23.2252 13.0504 24.5282 13.0504C25.8313 13.0504 26.8919 14.157 26.8919 15.5171C26.8922 16.8769 25.8317 17.9835 24.5282 17.9835ZM24.5282 14.409C23.9428 14.409 23.4667 14.9063 23.4667 15.5171C23.4667 16.128 23.9432 16.6249 24.5282 16.6249C25.1133 16.6249 25.5898 16.128 25.5898 15.5171C25.5902 14.9059 25.1137 14.409 24.5282 14.409ZM25.1687 24.2464C23.8656 24.2464 22.805 23.1398 22.805 21.78C22.805 20.4203 23.8656 19.3136 25.1687 19.3136C26.4717 19.3136 27.5323 20.4199 27.5323 21.78C27.5323 23.1401 26.4721 24.2464 25.1687 24.2464ZM25.1687 20.6726C24.5832 20.6726 24.1071 21.1691 24.1071 21.78C24.1071 22.3909 24.5836 22.8878 25.1687 22.8878C25.7537 22.8878 26.2302 22.3905 26.2302 21.78C26.2302 21.1695 25.7541 20.6726 25.1687 20.6726ZM14.4205 19.7704C13.1174 19.7704 12.0569 18.6638 12.0569 17.304C12.0569 15.9443 13.1174 14.8376 14.4205 14.8376C15.7236 14.8376 16.7841 15.9443 16.7841 17.304C16.7841 18.6638 15.7236 19.7704 14.4205 19.7704ZM14.4205 16.1963C13.835 16.1963 13.3589 16.6931 13.3589 17.304C13.3589 17.9149 13.835 18.4118 14.4205 18.4118C15.0059 18.4118 15.4821 17.9149 15.4821 17.304C15.4821 16.6931 15.0059 16.1963 14.4205 16.1963Z" fill="white"/>
</g>
<defs>
<clipPath id="clip0_372_6470">
<rect width="23" height="24" fill="white" transform="translate(8.32153 7.73926)"/>
</clipPath>
</defs>
</svg>
