<svg width="96" height="96" viewBox="0 0 96 96" fill="none" xmlns="http://www.w3.org/2000/svg">
<path d="M76 28C74.9391 28 73.9217 28.4214 73.1716 29.1716C72.4214 29.9217 72 30.9391 72 32V76.764C71.8853 78.7867 70.9759 80.6822 69.47 82.0375C67.9641 83.3929 65.9836 84.0982 63.96 84H32.04C30.0164 84.0982 28.0359 83.3929 26.53 82.0375C25.0241 80.6822 24.1147 78.7867 24 76.764V32C24 30.9391 23.5786 29.9217 22.8284 29.1716C22.0783 28.4214 21.0609 28 20 28C18.9391 28 17.9217 28.4214 17.1716 29.1716C16.4214 29.9217 16 30.9391 16 32V76.764C16.1142 80.9089 17.8663 84.8397 20.8727 87.6954C23.8791 90.5511 27.8947 92.0989 32.04 92H63.96C68.1053 92.0989 72.1209 90.5511 75.1273 87.6954C78.1337 84.8397 79.8858 80.9089 80 76.764V32C80 30.9391 79.5786 29.9217 78.8284 29.1716C78.0783 28.4214 77.0609 28 76 28ZM80 16H64V8C64 6.93913 63.5786 5.92172 62.8284 5.17157C62.0783 4.42143 61.0609 4 60 4H36C34.9391 4 33.9217 4.42143 33.1716 5.17157C32.4214 5.92172 32 6.93913 32 8V16H16C14.9391 16 13.9217 16.4214 13.1716 17.1716C12.4214 17.9217 12 18.9391 12 20C12 21.0609 12.4214 22.0783 13.1716 22.8284C13.9217 23.5786 14.9391 24 16 24H80C81.0609 24 82.0783 23.5786 82.8284 22.8284C83.5786 22.0783 84 21.0609 84 20C84 18.9391 83.5786 17.9217 82.8284 17.1716C82.0783 16.4214 81.0609 16 80 16ZM40 16V12H56V16H40Z" fill="#FF4A55" fill-opacity="0.5"/>
<path d="M44 68V40C44 38.9391 43.5786 37.9217 42.8284 37.1716C42.0783 36.4214 41.0609 36 40 36C38.9391 36 37.9217 36.4214 37.1716 37.1716C36.4214 37.9217 36 38.9391 36 40V68C36 69.0609 36.4214 70.0783 37.1716 70.8284C37.9217 71.5786 38.9391 72 40 72C41.0609 72 42.0783 71.5786 42.8284 70.8284C43.5786 70.0783 44 69.0609 44 68ZM60 68V40C60 38.9391 59.5786 37.9217 58.8284 37.1716C58.0783 36.4214 57.0609 36 56 36C54.9391 36 53.9217 36.4214 53.1716 37.1716C52.4214 37.9217 52 38.9391 52 40V68C52 69.0609 52.4214 70.0783 53.1716 70.8284C53.9217 71.5786 54.9391 72 56 72C57.0609 72 58.0783 71.5786 58.8284 70.8284C59.5786 70.0783 60 69.0609 60 68Z" fill="#FF4A55" fill-opacity="0.5"/>
</svg>
