<svg width="21" height="20" viewBox="0 0 21 20" fill="none" xmlns="http://www.w3.org/2000/svg">
<g clip-path="url(#clip0_882_8967)">
<path d="M10.6475 12.5C12.0282 12.5 13.1475 11.3807 13.1475 10C13.1475 8.61929 12.0282 7.5 10.6475 7.5C9.26675 7.5 8.14746 8.61929 8.14746 10C8.14746 11.3807 9.26675 12.5 10.6475 12.5Z" stroke="#333333" stroke-width="2" stroke-linecap="round" stroke-linejoin="round"/>
<path d="M16.8143 12.5C16.7034 12.7514 16.6703 13.0302 16.7193 13.3005C16.7683 13.5709 16.8972 13.8203 17.0893 14.0167L17.1393 14.0667C17.2943 14.2215 17.4172 14.4053 17.5011 14.6076C17.5849 14.81 17.6281 15.0268 17.6281 15.2459C17.6281 15.4649 17.5849 15.6818 17.5011 15.8841C17.4172 16.0864 17.2943 16.2702 17.1393 16.425C16.9845 16.58 16.8007 16.7029 16.5984 16.7868C16.396 16.8707 16.1791 16.9139 15.9601 16.9139C15.7411 16.9139 15.5242 16.8707 15.3219 16.7868C15.1196 16.7029 14.9357 16.58 14.781 16.425L14.731 16.375C14.5346 16.1829 14.2851 16.0541 14.0148 16.005C13.7445 15.956 13.4656 15.9891 13.2143 16.1C12.9678 16.2057 12.7576 16.3811 12.6095 16.6047C12.4615 16.8282 12.382 17.0902 12.381 17.3584V17.5C12.381 17.9421 12.2054 18.366 11.8928 18.6785C11.5802 18.9911 11.1563 19.1667 10.7143 19.1667C10.2723 19.1667 9.84834 18.9911 9.53578 18.6785C9.22322 18.366 9.04762 17.9421 9.04762 17.5V17.425C9.04117 17.1492 8.95189 16.8817 8.79138 16.6573C8.63088 16.4329 8.40657 16.2619 8.14762 16.1667C7.89628 16.0558 7.61746 16.0227 7.34713 16.0717C7.0768 16.1207 6.82736 16.2496 6.63096 16.4417L6.58096 16.4917C6.42617 16.6467 6.24235 16.7696 6.04002 16.8535C5.83769 16.9373 5.62082 16.9805 5.40179 16.9805C5.18276 16.9805 4.96589 16.9373 4.76356 16.8535C4.56123 16.7696 4.37741 16.6467 4.22262 16.4917C4.06766 16.3369 3.94473 16.1531 3.86086 15.9508C3.77698 15.7484 3.73381 15.5316 3.73381 15.3125C3.73381 15.0935 3.77698 14.8766 3.86086 14.6743C3.94473 14.472 4.06766 14.2882 4.22262 14.1334L4.27262 14.0834C4.46474 13.887 4.59361 13.6375 4.64263 13.3672C4.69164 13.0969 4.65855 12.8181 4.54762 12.5667C4.44199 12.3202 4.26659 12.11 4.04301 11.962C3.81944 11.8139 3.55745 11.7344 3.28929 11.7334H3.14762C2.7056 11.7334 2.28167 11.5578 1.96911 11.2452C1.65655 10.9327 1.48096 10.5087 1.48096 10.0667C1.48096 9.62468 1.65655 9.20076 1.96911 8.8882C2.28167 8.57563 2.7056 8.40004 3.14762 8.40004H3.22262C3.49845 8.39359 3.76596 8.30431 3.99037 8.1438C4.21478 7.98329 4.38572 7.75899 4.48096 7.50004C4.59189 7.24869 4.62498 6.96988 4.57596 6.69955C4.52694 6.42922 4.39807 6.17977 4.20596 5.98337L4.15596 5.93337C4.001 5.77858 3.87806 5.59477 3.79419 5.39244C3.71032 5.19011 3.66715 4.97323 3.66715 4.75421C3.66715 4.53518 3.71032 4.3183 3.79419 4.11597C3.87806 3.91364 4.001 3.72983 4.15596 3.57504C4.31075 3.42008 4.49456 3.29715 4.69689 3.21327C4.89922 3.1294 5.1161 3.08623 5.33512 3.08623C5.55415 3.08623 5.77103 3.1294 5.97336 3.21327C6.17569 3.29715 6.3595 3.42008 6.51429 3.57504L6.56429 3.62504C6.76069 3.81715 7.01014 3.94603 7.28047 3.99504C7.5508 4.04406 7.82961 4.01097 8.08096 3.90004H8.14762C8.3941 3.7944 8.6043 3.619 8.75237 3.39543C8.90043 3.17185 8.97989 2.90986 8.98096 2.64171V2.50004C8.98096 2.05801 9.15655 1.63409 9.46911 1.32153C9.78167 1.00897 10.2056 0.833374 10.6476 0.833374C11.0897 0.833374 11.5136 1.00897 11.8261 1.32153C12.1387 1.63409 12.3143 2.05801 12.3143 2.50004V2.57504C12.3154 2.8432 12.3948 3.10519 12.5429 3.32876C12.6909 3.55234 12.9011 3.72774 13.1476 3.83337C13.399 3.9443 13.6778 3.97739 13.9481 3.92838C14.2184 3.87936 14.4679 3.75049 14.6643 3.55837L14.7143 3.50837C14.8691 3.35341 15.0529 3.23048 15.2552 3.14661C15.4576 3.06273 15.6744 3.01956 15.8935 3.01956C16.1125 3.01956 16.3294 3.06273 16.5317 3.14661C16.734 3.23048 16.9178 3.35341 17.0726 3.50837C17.2276 3.66316 17.3505 3.84698 17.4344 4.04931C17.5183 4.25164 17.5614 4.46851 17.5614 4.68754C17.5614 4.90657 17.5183 5.12344 17.4344 5.32577C17.3505 5.5281 17.2276 5.71192 17.0726 5.86671L17.0226 5.91671C16.8305 6.11311 16.7016 6.36255 16.6526 6.63288C16.6036 6.90321 16.6367 7.18203 16.7476 7.43337V7.50004C16.8533 7.74651 17.0287 7.95672 17.2522 8.10478C17.4758 8.25285 17.7378 8.3323 18.006 8.33337H18.1476C18.5896 8.33337 19.0136 8.50897 19.3261 8.82153C19.6387 9.13409 19.8143 9.55801 19.8143 10C19.8143 10.4421 19.6387 10.866 19.3261 11.1786C19.0136 11.4911 18.5896 11.6667 18.1476 11.6667H18.0726C17.8045 11.6678 17.5425 11.7472 17.3189 11.8953C17.0953 12.0434 16.9199 12.2536 16.8143 12.5V12.5Z" stroke="#333333" stroke-width="2" stroke-linecap="round" stroke-linejoin="round"/>
</g>
<defs>
<clipPath id="clip0_882_8967">
<rect width="20" height="20" fill="white" transform="translate(0.647461)"/>
</clipPath>
</defs>
</svg>
