<svg width="50" height="50" viewBox="0 0 50 50" fill="none" xmlns="http://www.w3.org/2000/svg">
<path d="M34.5071 5.58826H15.6328C12.9699 5.59161 10.4169 6.65104 8.53399 8.53383C6.65092 10.4169 5.59178 12.9697 5.58813 15.6326V34.509C5.59176 37.172 6.65092 39.725 8.53399 41.6078C10.4168 43.4909 12.9699 44.55 15.6328 44.5537H34.5071C37.17 44.5501 39.723 43.4909 41.6059 41.6078C43.4889 39.725 44.5481 37.172 44.5517 34.509V15.6348C44.5486 12.9715 43.4895 10.4183 41.6064 8.5349C39.7236 6.65154 37.1704 5.59183 34.5071 5.58847V5.58826ZM42.1178 34.509C42.1155 36.5268 41.3131 38.4615 39.8865 39.8884C38.4596 41.315 36.5249 42.1175 34.5071 42.1197H15.6328C13.6149 42.1175 11.6802 41.315 10.2533 39.8884C8.82671 38.4615 8.02428 36.5268 8.02206 34.509V15.6347C8.0243 13.6168 8.82678 11.6821 10.2533 10.2553C11.6803 8.82861 13.6149 8.02619 15.6328 8.02397H34.5071C36.5249 8.0262 38.4596 8.82869 39.8865 10.2553C41.3131 11.6822 42.1156 13.6168 42.1178 15.6347V34.509ZM35.1141 25.0718C35.1141 25.3949 34.9858 25.7046 34.7576 25.9329C34.529 26.1614 34.2193 26.2898 33.8965 26.2898H26.2879V33.9005C26.2879 34.3355 26.0558 34.7376 25.6788 34.9552C25.3021 35.1728 24.8379 35.1728 24.4612 34.9552C24.0842 34.7376 23.8521 34.3355 23.8521 33.9005V26.2898H16.2414C15.8064 26.2898 15.4043 26.0576 15.1867 25.6807C14.969 25.304 14.969 24.8397 15.1867 24.463C15.4043 24.0861 15.8064 23.8539 16.2414 23.8539H23.8521V16.2432C23.8521 15.8082 24.0842 15.4062 24.4612 15.1885C24.8378 14.9709 25.3021 14.9709 25.6788 15.1885C26.0558 15.4061 26.2879 15.8082 26.2879 16.2432V23.8539H33.8986C34.2214 23.8545 34.5306 23.9831 34.7586 24.2114C34.9865 24.4396 35.1146 24.7493 35.1146 25.0719L35.1141 25.0718Z" fill="#D0D5DD"/>
</svg>
