<svg width="20" height="21" viewBox="0 0 20 21" fill="none" xmlns="http://www.w3.org/2000/svg">
<g clip-path="url(#clip0_441_7635)">
<path d="M18.4592 13.0141C18.1841 13.0141 17.9611 13.2371 17.9611 13.5122V17.9348C17.9601 18.7598 17.2918 19.4284 16.4668 19.4291H2.49052C1.66553 19.4284 0.99718 18.7598 0.996207 17.9348V4.95475C0.99718 4.12996 1.66553 3.46141 2.49052 3.46044H6.91313C7.18826 3.46044 7.41124 3.23746 7.41124 2.96234C7.41124 2.68741 7.18826 2.46423 6.91313 2.46423H2.49052C1.11567 2.46579 0.00155657 3.57991 0 4.95475V17.935C0.00155657 19.3099 1.11567 20.424 2.49052 20.4255H16.4668C17.8416 20.424 18.9558 19.3099 18.9573 17.935V13.5122C18.9573 13.2371 18.7343 13.0141 18.4592 13.0141Z" fill="#6B7280" stroke="#6B7280" stroke-width="0.5"/>
<path d="M18.76 1.18253C17.8846 0.307156 16.4654 0.307156 15.59 1.18253L6.70352 10.069C6.64262 10.1299 6.59865 10.2054 6.57569 10.2883L5.40709 14.5072C5.35903 14.6802 5.40787 14.8654 5.53473 14.9925C5.66179 15.1193 5.84702 15.1682 6.01999 15.1203L10.2389 13.9515C10.3218 13.9285 10.3973 13.8846 10.4582 13.8237L19.3445 4.93699C20.2185 4.06103 20.2185 2.64299 19.3445 1.76703L18.76 1.18253ZM7.78885 10.3928L15.0617 3.11969L17.4073 5.46525L10.1342 12.7383L7.78885 10.3928ZM7.32032 11.333L9.19424 13.2071L6.60215 13.9252L7.32032 11.333ZM18.6401 4.23264L18.1118 4.7609L15.7661 2.41515L16.2945 1.88688C16.7808 1.40065 17.5692 1.40065 18.0554 1.88688L18.6401 2.47138C19.1256 2.9582 19.1256 3.74602 18.6401 4.23264Z" fill="#6B7280" stroke="#6B7280" stroke-width="0.5"/>
</g>
<defs>
<clipPath id="clip0_441_7635">
<rect width="20" height="20" fill="white" transform="translate(0 0.5)"/>
</clipPath>
</defs>
</svg>
