<svg width="52" height="45" viewBox="0 0 52 45" fill="none" xmlns="http://www.w3.org/2000/svg">
<path fill-rule="evenodd" clip-rule="evenodd" d="M50 30.5C50 37.4062 44.4062 43 37.5 43C30.5938 43 25 37.4062 25 30.5C25 23.5958 30.5938 18 37.5 18C44.4062 18 50 23.5958 50 30.5V30.5Z" stroke="#E0E0E0" stroke-width="2.5" stroke-linecap="round" stroke-linejoin="round"/>
<path d="M44 28L36 36L32 32" stroke="#E0E0E0" stroke-width="2.5" stroke-linecap="round" stroke-linejoin="round"/>
<path d="M20.4286 32H5.07143C3.376 32 2 30.5579 2 28.7857V5.21429C2 3.43786 3.376 2 5.07143 2H41.9286C43.624 2 45 3.43786 45 5.21429V14.8571" stroke="#3F4DE1" stroke-width="2.75" stroke-linecap="round" stroke-linejoin="round"/>
<path d="M43 4.02579L23.0149 17L3 4" stroke="#3F4DE1" stroke-width="2.75" stroke-linecap="round" stroke-linejoin="round"/>
</svg>
