<svg width="28" height="28" viewBox="0 0 28 28" fill="none" xmlns="http://www.w3.org/2000/svg">
<ellipse cx="13.7641" cy="13.815" rx="13.6796" ry="13.815" fill="white"/>
<path d="M12.5024 20.0352V14.5551H10.6763V12.4194H12.5024V10.8443C12.5024 9.01652 13.6078 8.02124 15.2224 8.02124C15.9957 8.02124 16.6604 8.07939 16.8541 8.10538V10.0156L15.7344 10.0161C14.8563 10.0161 14.6863 10.4375 14.6863 11.0558V12.4194H16.7804L16.5077 14.5551H14.6863V20.0352H12.5024Z" fill="#333333"/>
<path d="M12.5024 20.0352V14.5551H10.6763V12.4194H12.5024V10.8443C12.5024 9.01652 13.6078 8.02124 15.2224 8.02124C15.9957 8.02124 16.6604 8.07939 16.8541 8.10538V10.0156L15.7344 10.0161C14.8563 10.0161 14.6863 10.4375 14.6863 11.0558V12.4194H16.7804L16.5077 14.5551H14.6863V20.0352H12.5024Z" stroke="#333333"/>
</svg>
