<svg width="45" height="45" viewBox="0 0 45 45" fill="none" xmlns="http://www.w3.org/2000/svg">
<path opacity="0.25" d="M44.0004 22.5C44.0004 34.3741 34.3745 44 22.5004 44C10.6262 44 1.00037 34.3741 1.00037 22.5C1.00037 10.6259 10.6262 1 22.5004 1C34.3745 1 44.0004 10.6259 44.0004 22.5Z" stroke="white" stroke-width="2"/>
<path d="M20.6994 29.393L20.6789 23.0961H18.0004V20.3974H20.6789V18.5983C20.6789 16.1702 22.1714 15 24.3212 15C25.3511 15 26.2361 15.0772 26.4941 15.1118V17.6493L25.003 17.65C23.8338 17.65 23.6074 18.2097 23.6074 19.0312V20.3974H26.9289L26.0361 23.0961H23.6074V29.393H20.6994Z" fill="white"/>
</svg>
