<svg width="48" height="29" viewBox="0 0 48 29" fill="none" xmlns="http://www.w3.org/2000/svg">
<path d="M7.49725 6.06055H4.00781V6.82106H7.49725V6.06055Z" fill="white" stroke="white" stroke-width="0.5"/>
<path d="M16.9469 11.7891H10.3257V12.5496H16.9469V11.7891Z" fill="white" stroke="white" stroke-width="0.5"/>
<path d="M16.9482 9.81396H12.8359V10.5745H16.9482V9.81396Z" fill="white" stroke="white" stroke-width="0.5"/>
<path d="M16.9485 15.9209H14.2407V16.6814H16.9485V15.9209Z" fill="white" stroke="white" stroke-width="0.5"/>
<path d="M16.9485 17.2632H14.2407V18.0237H16.9485V17.2632Z" fill="white" stroke="white" stroke-width="0.5"/>
<path d="M1.45886 17.8941L1 17.8678L10.1074 4.94793H4.04977V1.22949H13.5044V1.57996H4.39872V4.59747H10.7809L1.45886 17.8941Z" fill="white" stroke="white" stroke-width="0.5"/>
<path d="M13.4747 17.9696H4.02002V17.6192H13.1257V14.5999H6.74353L16.0638 1.30501L16.5052 1.28223L7.41525 14.2495H13.4747V17.9696Z" fill="white" stroke="white" stroke-width="0.5"/>
<path d="M19.5115 1H31.2622V1.48189H20.0401V9.15884H30.2293V9.64073H20.0401V17.4123H31.3808V17.8959H19.5167L19.5115 1Z" fill="white" stroke="white" stroke-width="0.5"/>
<path d="M35.3972 1H47.1479V1.48189H35.9259V9.15884H46.115V9.64073H35.9259V17.4123H47.2666V17.8959H35.4025L35.3972 1Z" fill="white" stroke="white" stroke-width="0.5"/>
<path d="M1.03662 20.8682H1.25471V27.8775H1.03662V20.8682Z" fill="white" stroke="white" stroke-width="0.5"/>
<path d="M3.39746 20.8682H3.59462L8.89508 27.5112V20.8682H9.10443V27.8775H8.91427L3.61555 21.2344V27.8775H3.40619L3.39746 20.8682Z" fill="white" stroke="white" stroke-width="0.5"/>
<path d="M10.4983 20.8682H10.7478L13.7662 27.6111L16.7845 20.8682H17.0131L13.8447 27.9213H13.6702L10.4983 20.8682Z" fill="white" stroke="white" stroke-width="0.5"/>
<path d="M17.7002 24.3801V24.3609C17.7002 22.4491 19.0558 20.7476 21.167 20.7476C23.2781 20.7476 24.6337 22.4491 24.6337 24.3609V24.3801C24.6337 26.2919 23.2798 27.9917 21.167 27.9917C19.0541 27.9917 17.7002 26.2919 17.7002 24.3801ZM24.4156 24.3906V24.3696C24.4156 22.5787 23.1001 20.9491 21.1582 20.9491C19.2164 20.9491 17.92 22.549 17.92 24.3503V24.3696C17.92 26.1605 19.2356 27.7919 21.1774 27.7919C23.1193 27.7919 24.4156 26.192 24.4156 24.3906Z" fill="white" stroke="white" stroke-width="0.5"/>
<path d="M26.4658 20.8682H26.6857V27.8775H26.4658V20.8682Z" fill="white" stroke="white" stroke-width="0.5"/>
<path d="M28.5176 24.3906V24.3696C28.5176 22.4 29.9535 20.7476 31.946 20.7476C33.2597 20.7476 33.9472 21.2382 34.5945 21.8585L34.4461 22.0092C33.8878 21.4695 33.1812 20.9578 31.9355 20.9578C30.0826 20.9578 28.7374 22.5349 28.7374 24.3696V24.3889C28.7374 26.2393 30.1018 27.8007 31.9355 27.8007C32.4148 27.7993 32.8885 27.6971 33.326 27.5006C33.7635 27.3042 34.1552 27.0178 34.4758 26.6599L34.6346 26.8106C34.2909 27.1883 33.8722 27.4893 33.4055 27.6942C32.9388 27.8992 32.4344 28.0035 31.925 28.0004C29.9622 27.9917 28.5176 26.3708 28.5176 24.3906Z" fill="white" stroke="white" stroke-width="0.5"/>
<path d="M36.0581 20.8682H40.9311V21.0679H36.2779V24.2502H40.5019V24.4499H36.2779V27.6724H40.9887V27.8722H36.0668L36.0581 20.8682Z" fill="white" stroke="white" stroke-width="0.5"/>
<path d="M42.1528 26.8499L42.3116 26.6905C42.6557 27.0345 43.064 27.3071 43.513 27.4926C43.9621 27.6782 44.4431 27.773 44.9287 27.7717C46.2337 27.7717 47.0712 27.0602 47.0712 26.121V26.0999C47.0712 25.2395 46.5478 24.7787 44.7891 24.4195C43.0653 24.069 42.4076 23.5591 42.4076 22.5778V22.5585C42.4076 21.5772 43.3637 20.7676 44.6757 20.7676C45.5324 20.7642 46.3662 21.0458 47.0468 21.5684L46.9072 21.7437C46.2619 21.2438 45.4714 20.9699 44.6565 20.9639C43.4352 20.9639 42.6239 21.7244 42.6239 22.541V22.5725C42.6239 23.4224 43.1613 23.8727 44.8746 24.2232C46.6891 24.5929 47.2858 25.1432 47.2858 26.0947V26.114C47.2858 27.1548 46.3803 27.9749 44.906 27.9749C43.8775 27.9741 42.8898 27.5705 42.1528 26.8499Z" fill="white" stroke="white" stroke-width="0.5"/>
</svg>
