<svg width="80" height="30" viewBox="0 0 80 30" fill="none" xmlns="http://www.w3.org/2000/svg">
<g clip-path="url(#clip0_2013_876)">
<path d="M40.9297 15.0002L49.9573 1.98724V-0.00976562H36.9131V2.67871H45.9978L36.9628 15.6917V17.6887H50.007V15.0002H40.9297Z" fill="white"/>
<path d="M56.5711 15V10.1797H64.2465V7.49127H56.5711V2.68846H64.8405V0H53.3796V17.696H64.9101V15H56.5711Z" fill="white"/>
<path d="M71.5667 15V10.1797H79.2421V7.49127H71.5667V2.68846H79.8337V0H68.3752V17.696H79.9057V15H71.5667Z" fill="white"/>
<path d="M36.9775 22.1443V28.8442H37.9842V22.1443H36.9775Z" fill="white"/>
<path d="M43.9969 22.1443V27.0644H43.9347L40.5419 22.1443H39.6099V28.8442H40.6165V23.9316H40.6787L44.0689 28.8442H44.9936V22.1443H43.9969Z" fill="white"/>
<path d="M50.9912 22.1443L49.1345 27.6011H49.0599L47.2082 22.1443H46.1145L48.5156 28.8442H49.6788L52.0774 22.1443H50.9912Z" fill="white"/>
<path d="M58.2712 23.6521C58.0325 23.1633 57.6612 22.7523 57.1999 22.4664C56.7299 22.1964 56.1979 22.0544 55.6564 22.0544C55.115 22.0544 54.5829 22.1964 54.1129 22.4664C53.6517 22.7523 53.2803 23.1633 53.0416 23.6521C52.7843 24.2319 52.6514 24.8596 52.6514 25.4943C52.6514 26.1291 52.7843 26.7568 53.0416 27.3366C53.2796 27.8258 53.6511 28.237 54.1129 28.5223C54.5824 28.7937 55.1147 28.9365 55.6564 28.9365C56.1981 28.9365 56.7304 28.7937 57.1999 28.5223C57.6616 28.238 58.0332 27.8276 58.2712 27.3391C58.5286 26.7588 58.6615 26.1308 58.6615 25.4956C58.6615 24.8604 58.5286 24.2323 58.2712 23.6521ZM57.3988 26.8748C57.2471 27.222 56.9984 27.5177 56.6829 27.726C56.3733 27.9154 56.0177 28.0155 55.6552 28.0155C55.2926 28.0155 54.937 27.9154 54.6274 27.726C54.3119 27.5177 54.0632 27.222 53.9115 26.8748C53.5603 25.9891 53.5603 25.002 53.9115 24.1164C54.0632 23.7691 54.3119 23.4735 54.6274 23.2652C54.937 23.0758 55.2926 22.9756 55.6552 22.9756C56.0177 22.9756 56.3733 23.0758 56.6829 23.2652C56.9984 23.4735 57.2471 23.7691 57.3988 24.1164C57.75 25.002 57.75 25.9891 57.3988 26.8748Z" fill="white"/>
<path d="M60.0708 22.1443V28.8442H61.065V22.1443H60.0708Z" fill="white"/>
<path d="M67.0056 27.2541C66.8999 27.415 66.767 27.5561 66.6129 27.671C66.4555 27.7823 66.2808 27.8667 66.0959 27.9206C65.9008 27.9793 65.6981 28.0087 65.4944 28.0079C65.1317 28.0123 64.7753 27.9118 64.4679 27.7184C64.1512 27.5108 63.9015 27.215 63.7495 26.8672C63.4033 25.9849 63.4033 25.0035 63.7495 24.1213C63.9032 23.7738 64.1524 23.4777 64.4679 23.2676C64.7752 23.0716 65.1329 22.9701 65.4969 22.9755C65.7024 22.9743 65.9069 23.0046 66.1034 23.0654C66.2879 23.1183 66.4619 23.2027 66.6179 23.315C66.7728 23.4319 66.9058 23.5756 67.0106 23.7394C67.12 23.9144 67.1935 24.1096 67.2268 24.3135H68.2434C68.1959 23.9762 68.0855 23.651 67.9178 23.3549C67.7634 23.0792 67.5565 22.8366 67.3088 22.641C67.0614 22.4447 66.7811 22.2943 66.4812 22.1967C66.16 22.0926 65.8243 22.0412 65.4869 22.0444C64.9451 22.0349 64.4114 22.1776 63.9459 22.4563C63.4854 22.7424 63.1149 23.1534 62.8771 23.642C62.6206 24.222 62.488 24.8496 62.488 25.4842C62.488 26.1189 62.6206 26.7465 62.8771 27.3265C63.114 27.8149 63.4837 28.2259 63.9434 28.5122C64.41 28.7929 64.9456 28.9365 65.4894 28.9266C65.8341 28.9295 66.1768 28.8747 66.5035 28.7643C66.8054 28.6599 67.0864 28.5027 67.3337 28.3C67.5746 28.101 67.7769 27.8589 67.9302 27.5861C68.0868 27.3048 68.1928 26.9981 68.2434 26.6799H67.2268C67.192 26.8842 67.1168 27.0795 67.0056 27.2541Z" fill="white"/>
<path d="M70.6146 27.9804V25.9285H73.5724V25.0623H70.6146V23.0204H73.8035V22.1492H69.6079V28.8491H73.8333V27.9804H70.6146Z" fill="white"/>
<path d="M79.8209 26.218C79.7065 26.006 79.549 25.8206 79.3586 25.6738C79.1671 25.5292 78.9573 25.4108 78.7347 25.3218C78.5219 25.2361 78.3035 25.1652 78.081 25.1097L77.4298 24.9399C77.2981 24.905 77.1638 24.865 77.0222 24.8126C76.8836 24.7638 76.751 24.6993 76.627 24.6204C76.5079 24.5466 76.4062 24.4478 76.3287 24.3308C76.2524 24.2073 76.2135 24.0642 76.2168 23.9189C76.2168 23.7392 76.2743 23.5642 76.3809 23.4197C76.5017 23.2621 76.6621 23.1398 76.8457 23.0652C77.0718 22.9755 77.3135 22.9322 77.5565 22.9379C77.8908 22.9233 78.2218 23.0103 78.506 23.1875C78.6279 23.2669 78.7302 23.3732 78.8051 23.4982C78.8801 23.6231 78.9257 23.7636 78.9385 23.909H79.9079C79.9057 23.5652 79.7961 23.2308 79.5947 22.9529C79.3839 22.666 79.102 22.4397 78.777 22.2964C78.4 22.1281 77.9914 22.043 77.5789 22.0467C77.164 22.0431 76.7531 22.1282 76.3734 22.2964C76.0369 22.4412 75.7445 22.6729 75.5259 22.9679C75.3164 23.2624 75.2074 23.617 75.2152 23.9788C75.2061 24.1894 75.2433 24.3994 75.3241 24.594C75.4048 24.7885 75.5272 24.9629 75.6824 25.1047C76.0479 25.4177 76.4825 25.6385 76.9501 25.7487L77.738 25.9659C77.9582 26.0213 78.1735 26.0947 78.3818 26.1855C78.5534 26.2551 78.7078 26.3616 78.8341 26.4976C78.9521 26.6361 79.0126 26.8148 79.0031 26.9968C79.0068 27.2035 78.9382 27.4049 78.8093 27.566C78.6708 27.7367 78.4899 27.8676 78.2848 27.9454C78.0427 28.0407 77.7843 28.0873 77.5242 28.0827C77.2815 28.085 77.0402 28.0453 76.8109 27.9654C76.6057 27.8963 76.4228 27.773 76.2815 27.6084C76.134 27.4414 76.0465 27.2296 76.0329 27.0068H75.0461C75.0588 27.3804 75.1778 27.7425 75.3892 28.0503C75.6055 28.3533 75.9028 28.5886 76.2467 28.7292C76.6567 28.901 77.0975 28.9859 77.5416 28.9789C77.9992 28.9931 78.4545 28.9079 78.8764 28.7292C79.2173 28.5819 79.5095 28.3404 79.719 28.0328C79.9163 27.7333 80.0186 27.3808 80.0123 27.0218C80.0206 26.7415 79.9546 26.4641 79.8209 26.218Z" fill="white"/>
<path d="M25.3477 26.5654L25.3303 26.6185C25.3294 26.626 25.3294 26.6337 25.3303 26.6413C25.3353 26.616 25.3353 26.5907 25.3477 26.5654Z" fill="white"/>
<path d="M25.4125 26.3606C25.4066 26.3871 25.3991 26.4133 25.3901 26.4389L25.4051 26.3783L25.4125 26.3606Z" fill="white"/>
<path d="M25.5165 25.7063C25.5202 25.7578 25.5202 25.8095 25.5165 25.8611C25.5165 25.8935 25.5164 25.9235 25.5042 25.9559C25.5115 25.9113 25.5164 25.8663 25.5189 25.8211C25.5205 25.7828 25.5197 25.7445 25.5165 25.7063Z" fill="white"/>
<path d="M25.5216 25.5493V25.5992C25.5216 25.6292 25.5216 25.6567 25.5216 25.6866C25.5228 25.6932 25.5228 25.7 25.5216 25.7066C25.5191 25.6542 25.5216 25.6017 25.5216 25.5493Z" fill="white"/>
<path d="M17.4786 6.97702C17.4786 7.1624 17.4053 7.34018 17.2747 7.47126C17.1442 7.60234 16.9672 7.67598 16.7826 7.67598H9.05753C8.87295 7.67598 8.69593 7.60234 8.56541 7.47126C8.4349 7.34018 8.36157 7.1624 8.36157 6.97702C8.36157 6.79165 8.4349 6.61387 8.56541 6.48279C8.69593 6.35171 8.87295 6.27808 9.05753 6.27808H16.7826C16.9672 6.27808 17.1442 6.35171 17.2747 6.48279C17.4053 6.61387 17.4786 6.79165 17.4786 6.97702Z" fill="white"/>
<path d="M22.4171 17.1541C22.4171 17.3395 22.3438 17.5173 22.2132 17.6483C22.0827 17.7794 21.9057 17.8531 21.7211 17.8531H9.05723C8.96217 17.8588 8.86695 17.8449 8.77743 17.8123C8.68791 17.7797 8.60597 17.729 8.53666 17.6634C8.46734 17.5979 8.41211 17.5187 8.37436 17.4309C8.33661 17.3431 8.31714 17.2485 8.31714 17.1529C8.31714 17.0572 8.33661 16.9626 8.37436 16.8748C8.41211 16.787 8.46734 16.7079 8.53666 16.6423C8.60597 16.5767 8.68791 16.5261 8.77743 16.4935C8.86695 16.4608 8.96217 16.447 9.05723 16.4527H21.7211C21.8127 16.4527 21.9034 16.4708 21.988 16.5061C22.0726 16.5414 22.1495 16.5931 22.2141 16.6583C22.2788 16.7234 22.33 16.8008 22.3648 16.8859C22.3996 16.971 22.4174 17.0621 22.4171 17.1541Z" fill="white"/>
<path d="M22.4171 12.0645C22.4174 12.1565 22.3996 12.2476 22.3648 12.3327C22.33 12.4178 22.2788 12.4951 22.2141 12.5603C22.1495 12.6255 22.0726 12.6772 21.988 12.7125C21.9034 12.7477 21.8127 12.7659 21.7211 12.7659H9.05723C8.96217 12.7716 8.86695 12.7577 8.77743 12.7251C8.68791 12.6925 8.60597 12.6419 8.53666 12.5763C8.46734 12.5107 8.41211 12.4316 8.37436 12.3438C8.33661 12.256 8.31714 12.1613 8.31714 12.0657C8.31714 11.9701 8.33661 11.8754 8.37436 11.7876C8.41211 11.6998 8.46734 11.6207 8.53666 11.5551C8.60597 11.4896 8.68791 11.4389 8.77743 11.4063C8.86695 11.3737 8.96217 11.3598 9.05723 11.3655H21.7211C21.9057 11.3655 22.0827 11.4391 22.2132 11.5702C22.3438 11.7013 22.4171 11.8791 22.4171 12.0645Z" fill="white"/>
<path d="M29.424 0.074635C29.274 0.0544722 29.1229 0.0444658 28.9716 0.0446811H8.05816C7.18075 0.0446811 6.33928 0.394731 5.71886 1.01782C5.09844 1.64092 4.74989 2.48601 4.74989 3.3672V21.6049H0V25.4066C0 26.6248 0.481837 27.7931 1.33952 28.6545C2.1972 29.5158 3.36047 29.9998 4.57342 29.9998H22.4694H22.6981L22.8745 29.9873C22.9615 29.9873 23.0485 29.9698 23.1231 29.9548C23.3188 29.9317 23.5125 29.8933 23.7022 29.84L23.8116 29.8075C24.6986 29.556 25.4794 29.02 26.035 28.2814C26.5905 27.5427 26.8903 26.6419 26.8887 25.7162V14.8001H32.3992V3.51697C32.4012 2.67899 32.1009 1.86862 31.554 1.23579C31.007 0.602953 30.2504 0.190467 29.424 0.074635ZM4.74989 28.6018H4.57342C3.73026 28.6005 2.92205 28.2634 2.32608 27.6644C1.73011 27.0654 1.39505 26.2534 1.39439 25.4066V23.0027H4.74989V28.6018ZM6.14429 28.5694V23.0027H18.0476V25.5489C18.0465 26.669 18.4674 27.7481 19.2258 28.5694H6.14429ZM25.5316 25.5989C25.5316 25.6288 25.5316 25.6563 25.5316 25.6862C25.5328 25.6928 25.5328 25.6996 25.5316 25.7062C25.5354 25.7577 25.5354 25.8094 25.5316 25.861C25.5316 25.8934 25.5316 25.9234 25.5192 25.9558C25.5067 26.0457 25.4918 26.1331 25.4719 26.2204C25.4719 26.2504 25.4595 26.2803 25.4496 26.3103C25.4396 26.3402 25.4496 26.3427 25.4371 26.3602C25.4312 26.3864 25.4237 26.4123 25.4148 26.4376L25.3924 26.5075C25.3898 26.5196 25.3856 26.5314 25.38 26.5424V26.5649L25.3626 26.6173C25.3616 26.6248 25.3616 26.6323 25.3626 26.6398C25.3569 26.65 25.3528 26.6609 25.3501 26.6722C25.3429 26.6857 25.337 26.7 25.3327 26.7147L25.3129 26.7646L25.2905 26.812C25.286 26.8279 25.2793 26.843 25.2706 26.857V26.8719V26.8869C25.0508 27.375 24.6995 27.7917 24.2565 28.0901L24.1074 28.1875L24.0701 28.2074C24.0422 28.2252 24.0131 28.241 23.9831 28.2549C23.9368 28.2825 23.8887 28.3067 23.8389 28.3273L23.7072 28.3847L23.5954 28.4271L23.563 28.4396L23.3841 28.4945C23.2094 28.5428 23.0304 28.5737 22.8497 28.5869H22.6956H22.539H22.3824H22.278H22.1985H22.0966H22.0767L21.9201 28.5569C21.8547 28.5447 21.7899 28.5288 21.7262 28.5095C21.6766 28.4972 21.6276 28.4822 21.5796 28.4646L21.4155 28.4046L21.326 28.3672C21.1428 28.2876 20.9679 28.1898 20.8041 28.0751L20.6525 27.9603C20.6022 27.9223 20.554 27.8814 20.5083 27.838H20.4959C20.4536 27.7981 20.4114 27.7581 20.3716 27.7157C20.3259 27.6716 20.2828 27.6249 20.2423 27.5759C20.2026 27.531 20.1628 27.481 20.128 27.4336C20.0888 27.3858 20.0523 27.3358 20.0186 27.2838C19.9963 27.2514 19.9764 27.2189 19.9565 27.1865C19.9366 27.154 19.9167 27.1216 19.8993 27.0891C19.8571 27.0167 19.8198 26.9443 19.785 26.8694C19.7572 26.8134 19.7323 26.7559 19.7104 26.6972C19.6881 26.6398 19.6682 26.5824 19.6483 26.5225C19.6284 26.4626 19.611 26.4026 19.5961 26.3402C19.5553 26.1838 19.527 26.0244 19.5116 25.8635C19.5116 25.7686 19.5116 25.6737 19.5116 25.5789V23.0327H25.5912L25.5316 25.5989ZM25.5962 2.84548C25.5532 3.06501 25.5316 3.28824 25.5316 3.51198V21.6049H6.14429V3.3672C6.14429 2.85742 6.34593 2.36853 6.70485 2.00806C7.06377 1.64759 7.55057 1.44508 8.05816 1.44508H26.2027C25.8943 1.85931 25.6828 2.33794 25.5838 2.84548H25.5962ZM31.0396 13.3997H26.9136V3.39466C26.9374 2.98449 27.0823 2.59073 27.3297 2.26354C27.5771 1.93634 27.916 1.69053 28.303 1.55741C28.5173 1.48297 28.7424 1.44501 28.9691 1.44508C29.5149 1.44508 30.0384 1.66284 30.4244 2.05046C30.8103 2.43808 31.0272 2.96381 31.0272 3.51198L31.0396 13.3997Z" fill="white"/>
<path d="M25.3477 26.5654L25.3303 26.6185C25.3294 26.626 25.3294 26.6337 25.3303 26.6413C25.3353 26.616 25.3353 26.5907 25.3477 26.5654Z" fill="white"/>
<path d="M25.4125 26.3606C25.4066 26.3871 25.3991 26.4133 25.3901 26.4389L25.4051 26.3783L25.4125 26.3606Z" fill="white"/>
<path d="M25.5165 25.7063C25.5202 25.7578 25.5202 25.8095 25.5165 25.8611C25.5165 25.8935 25.5164 25.9235 25.5042 25.9559C25.5115 25.9113 25.5164 25.8663 25.5189 25.8211C25.5205 25.7828 25.5197 25.7445 25.5165 25.7063Z" fill="white"/>
<path d="M25.5216 25.5493V25.5992C25.5216 25.6292 25.5216 25.6567 25.5216 25.6866C25.5228 25.6932 25.5228 25.7 25.5216 25.7066C25.5191 25.6542 25.5216 25.6017 25.5216 25.5493Z" fill="white"/>
<path d="M25.4125 26.3606C25.4066 26.3871 25.3991 26.4133 25.3901 26.4389L25.4051 26.3783L25.4125 26.3606Z" fill="white"/>
<path d="M25.5165 25.7063C25.5202 25.7578 25.5202 25.8095 25.5165 25.8611C25.5165 25.8935 25.5164 25.9235 25.5042 25.9559C25.5115 25.9113 25.5164 25.8663 25.5189 25.8211C25.5205 25.7828 25.5197 25.7445 25.5165 25.7063Z" fill="white"/>
<path d="M17.4786 6.97702C17.4786 7.1624 17.4053 7.34018 17.2747 7.47126C17.1442 7.60234 16.9672 7.67598 16.7826 7.67598H9.05753C8.87295 7.67598 8.69593 7.60234 8.56541 7.47126C8.4349 7.34018 8.36157 7.1624 8.36157 6.97702C8.36157 6.79165 8.4349 6.61387 8.56541 6.48279C8.69593 6.35171 8.87295 6.27808 9.05753 6.27808H16.7826C16.9672 6.27808 17.1442 6.35171 17.2747 6.48279C17.4053 6.61387 17.4786 6.79165 17.4786 6.97702Z" fill="white"/>
<path d="M22.4171 12.0645C22.4174 12.1565 22.3996 12.2476 22.3648 12.3327C22.33 12.4178 22.2788 12.4951 22.2141 12.5603C22.1495 12.6255 22.0726 12.6772 21.988 12.7125C21.9034 12.7477 21.8127 12.7659 21.7211 12.7659H9.05723C8.96217 12.7716 8.86695 12.7577 8.77743 12.7251C8.68791 12.6925 8.60597 12.6419 8.53666 12.5763C8.46734 12.5107 8.41211 12.4316 8.37436 12.3438C8.33661 12.256 8.31714 12.1613 8.31714 12.0657C8.31714 11.9701 8.33661 11.8754 8.37436 11.7876C8.41211 11.6998 8.46734 11.6207 8.53666 11.5551C8.60597 11.4896 8.68791 11.4389 8.77743 11.4063C8.86695 11.3737 8.96217 11.3598 9.05723 11.3655H21.7211C21.9057 11.3655 22.0827 11.4391 22.2132 11.5702C22.3438 11.7013 22.4171 11.8791 22.4171 12.0645Z" fill="white"/>
<path d="M22.4171 17.1541C22.4171 17.3395 22.3438 17.5173 22.2132 17.6483C22.0827 17.7794 21.9057 17.8531 21.7211 17.8531H9.05723C8.96217 17.8588 8.86695 17.8449 8.77743 17.8123C8.68791 17.7797 8.60597 17.729 8.53666 17.6634C8.46734 17.5979 8.41211 17.5187 8.37436 17.4309C8.33661 17.3431 8.31714 17.2485 8.31714 17.1529C8.31714 17.0572 8.33661 16.9626 8.37436 16.8748C8.41211 16.787 8.46734 16.7079 8.53666 16.6423C8.60597 16.5767 8.68791 16.5261 8.77743 16.4935C8.86695 16.4608 8.96217 16.447 9.05723 16.4527H21.7211C21.8127 16.4527 21.9034 16.4708 21.988 16.5061C22.0726 16.5414 22.1495 16.5931 22.2141 16.6583C22.2788 16.7234 22.33 16.8008 22.3648 16.8859C22.3996 16.971 22.4174 17.0621 22.4171 17.1541Z" fill="white"/>
<path d="M25.5091 25.821C25.5091 25.821 25.5091 25.8485 25.5091 25.861C25.5091 25.8735 25.5091 25.9234 25.4968 25.9559C25.5033 25.9112 25.5074 25.8662 25.5091 25.821Z" fill="white"/>
</g>
<defs>
<clipPath id="clip0_2013_876">
<rect width="80" height="30" fill="white"/>
</clipPath>
</defs>
</svg>
