<svg width="26" height="24" viewBox="0 0 26 24" fill="none" xmlns="http://www.w3.org/2000/svg">
<path d="M24.068 9.58932L13.8655 9.58887C13.415 9.58887 13.0498 9.92774 13.0498 10.3459V13.3708C13.0498 13.7888 13.415 14.1278 13.8655 14.1278H19.6109C18.9818 15.6431 17.8075 16.9121 16.3094 17.7184L18.7592 21.6544C22.6891 19.545 25.0125 15.8439 25.0125 11.7008C25.0125 11.1109 24.9656 10.6892 24.8719 10.2143C24.8007 9.85356 24.4632 9.58932 24.068 9.58932Z" fill="#167EE6"/>
<path d="M12.506 18.6723C9.69432 18.6723 7.23974 17.2465 5.92143 15.1367L1.68066 17.4053C3.83876 20.8766 7.88157 23.2142 12.506 23.2142C14.7746 23.2142 16.9152 22.6474 18.7593 21.6594V21.654L16.3094 17.718C15.1888 18.3212 13.892 18.6723 12.506 18.6723Z" fill="#12B347"/>
<path d="M18.7601 21.6592V21.6538L16.3102 17.7178C15.1896 18.3209 13.893 18.6721 12.5068 18.6721V23.214C14.7754 23.214 16.9161 22.6471 18.7601 21.6592Z" fill="#0F993E"/>
<path d="M4.89384 11.6068C4.89384 10.3205 5.27206 9.11713 5.92186 8.07716L1.68109 5.80859C0.610765 7.51462 0 9.4959 0 11.6068C0 13.7176 0.610765 15.6989 1.68109 17.4049L5.92186 15.1364C5.27206 14.0964 4.89384 12.893 4.89384 11.6068Z" fill="#FFD500"/>
<path d="M12.506 4.54193C14.3395 4.54193 16.0237 5.14659 17.3392 6.15237C17.6637 6.40048 18.1354 6.38257 18.4327 6.10667L20.742 3.96343C21.0793 3.6504 21.0552 3.13801 20.6949 2.84792C18.4909 1.07334 15.6232 0 12.506 0C7.88157 0 3.83876 2.33762 1.68066 5.80897L5.92143 8.07753C7.23974 5.9677 9.69432 4.54193 12.506 4.54193Z" fill="#FF4B26"/>
<path d="M17.34 6.15238C17.6645 6.40048 18.1363 6.38257 18.4335 6.10667L20.7428 3.96343C21.08 3.6504 21.056 3.13801 20.6957 2.84792C18.4917 1.0733 15.624 0 12.5068 0V4.54193C14.3403 4.54193 16.0245 5.14659 17.34 6.15238Z" fill="#D93F21"/>
</svg>
