<svg width="25" height="18" viewBox="0 0 25 18" fill="none" xmlns="http://www.w3.org/2000/svg">
<g clip-path="url(#clip0_480_9533)">
<path d="M23.9583 10.0697H1.04167C0.466665 10.0697 0 9.603 0 9.02799C0 8.45299 0.466665 7.98633 1.04167 7.98633H23.9583C24.5333 7.98633 25 8.45299 25 9.02799C25 9.603 24.5333 10.0697 23.9583 10.0697Z" fill="black"/>
<path d="M23.9583 2.08333H1.04167C0.466665 2.08333 0 1.61667 0 1.04167C0 0.466665 0.466665 0 1.04167 0H23.9583C24.5333 0 25 0.466665 25 1.04167C25 1.61667 24.5333 2.08333 23.9583 2.08333Z" fill="black"/>
<path d="M23.9583 18.0555H1.04167C0.466665 18.0555 0 17.5888 0 17.0138C0 16.4388 0.466665 15.9722 1.04167 15.9722H23.9583C24.5333 15.9722 25 16.4388 25 17.0138C25 17.5888 24.5333 18.0555 23.9583 18.0555Z" fill="black"/>
</g>
<defs>
<clipPath id="clip0_480_9533">
<rect width="25" height="18" fill="white"/>
</clipPath>
</defs>
</svg>
