<svg width="28" height="28" viewBox="0 0 28 28" fill="none" xmlns="http://www.w3.org/2000/svg">
<ellipse cx="13.8485" cy="13.815" rx="13.6796" ry="13.815" fill="white"/>
<path d="M13.8491 8.33537C15.6164 8.33537 15.8257 8.34206 16.5239 8.37421C16.9437 8.37939 17.3595 8.45724 17.7532 8.60435C18.0387 8.71555 18.298 8.8859 18.5144 9.10443C18.7308 9.32295 18.8994 9.58482 19.0095 9.87316C19.1552 10.2708 19.2323 10.6907 19.2374 11.1146C19.269 11.8197 19.2759 12.031 19.2759 13.8158C19.2759 15.6006 19.2693 15.812 19.2374 16.5171C19.2323 16.941 19.1552 17.3609 19.0095 17.7585C18.8994 18.0469 18.7308 18.3087 18.5144 18.5273C18.298 18.7458 18.0387 18.9161 17.7532 19.0273C17.3595 19.1744 16.9437 19.2523 16.5239 19.2575C15.8261 19.2893 15.6168 19.2963 13.8491 19.2963C12.0815 19.2963 11.8722 19.2896 11.1744 19.2575C10.7546 19.2523 10.3388 19.1744 9.94509 19.0273C9.65957 18.9161 9.40028 18.7458 9.18389 18.5273C8.96751 18.3087 8.79883 18.0469 8.68872 17.7585C8.54304 17.3609 8.46596 16.941 8.46083 16.5171C8.42931 15.812 8.42237 15.6006 8.42237 13.8158C8.42237 12.031 8.42899 11.8197 8.46083 11.1146C8.46596 10.6907 8.54304 10.2708 8.68872 9.87316C8.79883 9.58482 8.96751 9.32295 9.18389 9.10443C9.40028 8.8859 9.65957 8.71555 9.94509 8.60435C10.3388 8.45724 10.7546 8.37939 11.1744 8.37421C11.8725 8.34238 12.0818 8.33537 13.8491 8.33537ZM13.8491 7.13086C12.0525 7.13086 11.8262 7.1385 11.1201 7.17097C10.5708 7.182 10.0272 7.28705 9.51264 7.48165C9.07121 7.64961 8.67138 7.91283 8.34105 8.25293C8.00398 8.58664 7.74312 8.99066 7.5767 9.43675C7.38401 9.95643 7.27999 10.5054 7.26907 11.0602C7.23755 11.7726 7.22998 12.0011 7.22998 13.8155C7.22998 15.6299 7.23755 15.8585 7.2697 16.5715C7.28062 17.1263 7.38464 17.6753 7.57733 18.1949C7.74357 18.641 8.00421 19.045 8.34105 19.3788C8.67156 19.7189 9.07161 19.9822 9.51327 20.15C10.0279 20.3446 10.5714 20.4497 11.1208 20.4607C11.8268 20.4926 12.0522 20.5008 13.8498 20.5008C15.6473 20.5008 15.8727 20.4932 16.5787 20.4607C17.1281 20.4497 17.6717 20.3446 18.1862 20.15C18.6258 19.978 19.025 19.7151 19.3582 19.3784C19.6915 19.0416 19.9515 18.6383 20.1216 18.1943C20.3143 17.6746 20.4183 17.1257 20.4292 16.5709C20.4607 15.8585 20.4683 15.6299 20.4683 13.8155C20.4683 12.0011 20.4607 11.7726 20.4286 11.0595C20.4176 10.5047 20.3136 9.9558 20.1209 9.43611C19.9547 8.99008 19.6941 8.58607 19.3572 8.25229C19.0267 7.91211 18.6267 7.64889 18.185 7.48101C17.6704 7.28641 17.1269 7.18137 16.5775 7.17033C15.8721 7.1385 15.6458 7.13086 13.8491 7.13086Z" fill="#333333"/>
<path d="M13.8491 8.33537C15.6164 8.33537 15.8257 8.34206 16.5239 8.37421C16.9437 8.37939 17.3595 8.45724 17.7532 8.60435C18.0387 8.71555 18.298 8.8859 18.5144 9.10443C18.7308 9.32295 18.8994 9.58482 19.0095 9.87316C19.1552 10.2708 19.2323 10.6907 19.2374 11.1146C19.269 11.8197 19.2759 12.031 19.2759 13.8158C19.2759 15.6006 19.2693 15.812 19.2374 16.5171C19.2323 16.941 19.1552 17.3609 19.0095 17.7585C18.8994 18.0469 18.7308 18.3087 18.5144 18.5273C18.298 18.7458 18.0387 18.9161 17.7532 19.0273C17.3595 19.1744 16.9437 19.2523 16.5239 19.2575C15.8261 19.2893 15.6168 19.2963 13.8491 19.2963C12.0815 19.2963 11.8722 19.2896 11.1744 19.2575C10.7546 19.2523 10.3388 19.1744 9.94509 19.0273C9.65957 18.9161 9.40028 18.7458 9.18389 18.5273C8.96751 18.3087 8.79883 18.0469 8.68872 17.7585C8.54304 17.3609 8.46596 16.941 8.46083 16.5171C8.42931 15.812 8.42237 15.6006 8.42237 13.8158C8.42237 12.031 8.42899 11.8197 8.46083 11.1146C8.46596 10.6907 8.54304 10.2708 8.68872 9.87316C8.79883 9.58482 8.96751 9.32295 9.18389 9.10443C9.40028 8.8859 9.65957 8.71555 9.94509 8.60435C10.3388 8.45724 10.7546 8.37939 11.1744 8.37421C11.8725 8.34238 12.0818 8.33537 13.8491 8.33537ZM13.8491 7.13086C12.0525 7.13086 11.8262 7.1385 11.1201 7.17097C10.5708 7.182 10.0272 7.28705 9.51264 7.48165C9.07121 7.64961 8.67138 7.91283 8.34105 8.25293C8.00398 8.58664 7.74312 8.99066 7.5767 9.43675C7.38401 9.95643 7.27999 10.5054 7.26907 11.0602C7.23755 11.7726 7.22998 12.0011 7.22998 13.8155C7.22998 15.6299 7.23755 15.8585 7.2697 16.5715C7.28062 17.1263 7.38464 17.6753 7.57733 18.1949C7.74357 18.641 8.00421 19.045 8.34105 19.3788C8.67156 19.7189 9.07161 19.9822 9.51327 20.15C10.0279 20.3446 10.5714 20.4497 11.1208 20.4607C11.8268 20.4926 12.0522 20.5008 13.8498 20.5008C15.6473 20.5008 15.8727 20.4932 16.5787 20.4607C17.1281 20.4497 17.6717 20.3446 18.1862 20.15C18.6258 19.978 19.025 19.7151 19.3582 19.3784C19.6915 19.0416 19.9515 18.6383 20.1216 18.1943C20.3143 17.6746 20.4183 17.1257 20.4292 16.5709C20.4607 15.8585 20.4683 15.6299 20.4683 13.8155C20.4683 12.0011 20.4607 11.7726 20.4286 11.0595C20.4176 10.5047 20.3136 9.9558 20.1209 9.43611C19.9547 8.99008 19.6941 8.58607 19.3572 8.25229C19.0267 7.91211 18.6267 7.64889 18.185 7.48101C17.6704 7.28641 17.1269 7.18137 16.5775 7.17033C15.8721 7.1385 15.6458 7.13086 13.8491 7.13086Z" stroke="#333333"/>
<path d="M13.8503 10.3843C13.178 10.3843 12.5208 10.5856 11.9618 10.9628C11.4029 11.34 10.9672 11.8761 10.7099 12.5034C10.4526 13.1306 10.3853 13.8208 10.5165 14.4867C10.6476 15.1526 10.9714 15.7642 11.4467 16.2443C11.9221 16.7244 12.5278 17.0513 13.1871 17.1838C13.8465 17.3162 14.5299 17.2483 15.151 16.9884C15.7721 16.7286 16.303 16.2886 16.6765 15.7241C17.05 15.1596 17.2494 14.4959 17.2494 13.817C17.2494 12.9066 16.8912 12.0335 16.2538 11.3897C15.6163 10.7459 14.7518 10.3843 13.8503 10.3843ZM13.8503 16.0452C13.4139 16.0452 12.9873 15.9146 12.6245 15.6697C12.2616 15.4249 11.9788 15.0769 11.8118 14.6697C11.6448 14.2626 11.6011 13.8145 11.6863 13.3823C11.7714 12.9501 11.9815 12.553 12.2901 12.2414C12.5987 11.9298 12.9918 11.7176 13.4198 11.6316C13.8478 11.5456 14.2914 11.5898 14.6946 11.7584C15.0978 11.9271 15.4424 12.2126 15.6848 12.5791C15.9272 12.9455 16.0566 13.3763 16.0566 13.817C16.0566 14.408 15.8242 14.9747 15.4104 15.3926C14.9966 15.8105 14.4354 16.0452 13.8503 16.0452Z" fill="#333333"/>
<path d="M13.8503 10.3843C13.178 10.3843 12.5208 10.5856 11.9618 10.9628C11.4029 11.34 10.9672 11.8761 10.7099 12.5034C10.4526 13.1306 10.3853 13.8208 10.5165 14.4867C10.6476 15.1526 10.9714 15.7642 11.4467 16.2443C11.9221 16.7244 12.5278 17.0513 13.1871 17.1838C13.8465 17.3162 14.5299 17.2483 15.151 16.9884C15.7721 16.7286 16.303 16.2886 16.6765 15.7241C17.05 15.1596 17.2494 14.4959 17.2494 13.817C17.2494 12.9066 16.8912 12.0335 16.2538 11.3897C15.6163 10.7459 14.7518 10.3843 13.8503 10.3843ZM13.8503 16.0452C13.4139 16.0452 12.9873 15.9146 12.6245 15.6697C12.2616 15.4249 11.9788 15.0769 11.8118 14.6697C11.6448 14.2626 11.6011 13.8145 11.6863 13.3823C11.7714 12.9501 11.9815 12.553 12.2901 12.2414C12.5987 11.9298 12.9918 11.7176 13.4198 11.6316C13.8478 11.5456 14.2914 11.5898 14.6946 11.7584C15.0978 11.9271 15.4424 12.2126 15.6848 12.5791C15.9272 12.9455 16.0566 13.3763 16.0566 13.817C16.0566 14.408 15.8242 14.9747 15.4104 15.3926C14.9966 15.8105 14.4354 16.0452 13.8503 16.0452Z" stroke="#333333"/>
<path d="M17.3832 11.0499C17.8218 11.0499 18.1775 10.6907 18.1775 10.2477C18.1775 9.8047 17.8218 9.44556 17.3832 9.44556C16.9445 9.44556 16.5889 9.8047 16.5889 10.2477C16.5889 10.6907 16.9445 11.0499 17.3832 11.0499Z" fill="#333333"/>
<path d="M17.3832 11.0499C17.8218 11.0499 18.1775 10.6907 18.1775 10.2477C18.1775 9.8047 17.8218 9.44556 17.3832 9.44556C16.9445 9.44556 16.5889 9.8047 16.5889 10.2477C16.5889 10.6907 16.9445 11.0499 17.3832 11.0499Z" stroke="#333333"/>
</svg>
