<svg width="45" height="45" viewBox="0 0 45 45" fill="none" xmlns="http://www.w3.org/2000/svg">
<path opacity="0.25" d="M44.0004 22.5C44.0004 34.3741 34.3745 44 22.5004 44C10.6262 44 1.00037 34.3741 1.00037 22.5C1.00037 10.6259 10.6262 1 22.5004 1C34.3745 1 44.0004 10.6259 44.0004 22.5Z" stroke="white" stroke-width="2"/>
<path d="M25.8681 19.9418C26.2989 19.9418 26.6481 19.5926 26.6481 19.1618C26.6481 18.7311 26.2989 18.3818 25.8681 18.3818C25.4374 18.3818 25.0881 18.7311 25.0881 19.1618C25.0881 19.5926 25.4374 19.9418 25.8681 19.9418Z" fill="white"/>
<path fill-rule="evenodd" clip-rule="evenodd" d="M19.2504 22.5C19.2504 24.2924 20.708 25.75 22.5004 25.75C24.2927 25.75 25.7504 24.2924 25.7504 22.5C25.7504 20.7076 24.2927 19.25 22.5004 19.25C20.708 19.25 19.2504 20.7076 19.2504 22.5ZM20.8754 22.5C20.8754 21.6038 21.6042 20.875 22.5004 20.875C23.3966 20.875 24.1254 21.6038 24.1254 22.5C24.1254 23.3962 23.3966 24.125 22.5004 24.125C21.6042 24.125 20.8754 23.3962 20.8754 22.5Z" fill="white"/>
<path fill-rule="evenodd" clip-rule="evenodd" d="M19.2504 29H25.7504C27.4209 29 29.0004 27.4205 29.0004 25.75V19.25C29.0004 17.5795 27.4209 16 25.7504 16H19.2504C17.5799 16 16.0004 17.5795 16.0004 19.25V25.75C16.0004 27.4205 17.5799 29 19.2504 29ZM17.6254 19.25C17.6254 18.4903 18.4907 17.625 19.2504 17.625H25.7504C26.5101 17.625 27.3754 18.4903 27.3754 19.25V25.75C27.3754 26.5097 26.5101 27.375 25.7504 27.375H19.2504C18.4761 27.375 17.6254 26.5243 17.6254 25.75V19.25Z" fill="white"/>
</svg>
