<svg width="96" height="96" viewBox="0 0 96 96" fill="none" xmlns="http://www.w3.org/2000/svg">
<path d="M78.353 88.6472H16.2354V95.706H78.353V88.6472Z" fill="#3F4DE1"/>
<path d="M58.4706 31.8236H36.706C34.7566 31.8236 33.1765 33.4037 33.1765 35.3531C33.1765 37.3025 34.7566 38.8826 36.706 38.8826H58.4706C60.4201 38.8826 62.0001 37.3025 62.0001 35.3531C62.0001 33.4037 60.4201 31.8236 58.4706 31.8236Z" fill="#3F4DE1"/>
<path d="M74.9412 48.2942H36.706C34.7566 48.2942 33.1765 49.8743 33.1765 51.8237C33.1765 53.7731 34.7566 55.3532 36.706 55.3532H74.9414C76.8908 55.3532 78.4707 53.7731 78.4707 51.8237C78.4707 49.8743 76.8906 48.2942 74.9412 48.2942Z" fill="#3F4DE1"/>
<path d="M93.9201 0.723789C92.6529 0.154352 91.1719 0.379164 90.1318 1.29791L80.2483 10.0414L70.353 1.1931C69.0129 -0.00577348 66.9872 -0.00577348 65.6471 1.1931L55.7647 10.0307L45.8812 1.1931C44.5412 -0.00577348 42.5166 -0.00577348 41.1765 1.1931L31.2812 10.0414L21.3977 1.29791C20.3589 0.380289 18.8766 0.155477 17.6094 0.723789C16.3436 1.29435 15.5295 2.55323 15.5295 3.94148V66.765H3.5295C1.58006 66.7648 0 68.3449 0 70.2944V78.8826C0 88.159 7.54706 95.706 16.8234 95.706V88.6472C11.4388 88.6472 7.05881 84.2661 7.05881 78.8826V73.8239H62.3529V78.8826C62.3529 88.159 69.9 95.7062 79.1764 95.7062C88.4527 95.7062 95.9998 88.1592 95.9998 78.8828V3.94129C96 2.55304 95.1859 1.29435 93.9201 0.723789ZM88.9412 78.8826C88.9412 84.2661 84.5601 88.6472 79.1766 88.6472C73.7931 88.6472 69.4119 84.2661 69.4119 78.8826V70.2944C69.4119 68.3449 67.8319 66.7649 65.8824 66.7649H22.5883V11.7754L28.9566 17.4096C30.2977 18.5955 32.3141 18.5895 33.6471 17.3967L43.5294 8.55904L53.4118 17.3955C54.7519 18.5944 56.7776 18.5944 58.1177 17.3955L68.0012 8.55791L77.8836 17.3955C79.2176 18.5884 81.2342 18.5931 82.5741 17.4085L88.9412 11.7756V78.8826Z" fill="#3F4DE1"/>
</svg>
