<svg width="21" height="20" viewBox="0 0 21 20" fill="none" xmlns="http://www.w3.org/2000/svg">
<g clip-path="url(#clip0_882_8944)">
<path d="M16.971 18.4683H4.02979V19.9388H16.971V18.4683Z" fill="#333333"/>
<path d="M12.8287 6.63H8.29439C7.88826 6.63 7.55908 6.95918 7.55908 7.36532C7.55908 7.77145 7.88826 8.10063 8.29439 8.10063H12.8287C13.2348 8.10063 13.564 7.77145 13.564 7.36532C13.564 6.95918 13.2348 6.63 12.8287 6.63Z" fill="#333333"/>
<path d="M16.2601 10.0613H8.29439C7.88826 10.0613 7.55908 10.3905 7.55908 10.7966C7.55908 11.2027 7.88826 11.5319 8.29439 11.5319H16.2601C16.6662 11.5319 16.9954 11.2027 16.9954 10.7966C16.9954 10.3905 16.6662 10.0613 16.2601 10.0613Z" fill="#333333"/>
<path d="M20.2141 0.15083C19.9502 0.0321973 19.6416 0.0790332 19.4249 0.270439L17.3659 2.092L15.3043 0.248604C15.0252 -0.00116212 14.6031 -0.00116212 14.3239 0.248604L12.2651 2.08978L10.2061 0.248604C9.92687 -0.00116212 9.50508 -0.00116212 9.2259 0.248604L7.16437 2.092L5.10531 0.270439C4.88891 0.0792676 4.58008 0.0324316 4.31609 0.15083C4.05238 0.269697 3.88277 0.531963 3.88277 0.821182V13.9094H1.38277C0.976641 13.9094 0.647461 14.2386 0.647461 14.6447V16.4339C0.647461 18.3665 2.21977 19.9388 4.15234 19.9388V18.4682C3.03055 18.4682 2.11805 17.5555 2.11805 16.4339V15.38H13.6377V16.4339C13.6377 18.3665 15.21 19.9388 17.1425 19.9388C19.0751 19.9388 20.6474 18.3665 20.6474 16.434V0.821143C20.6475 0.531924 20.4779 0.269697 20.2141 0.15083ZM19.1769 16.4339C19.1769 17.5555 18.2641 18.4682 17.1426 18.4682C16.021 18.4682 15.1083 17.5555 15.1083 16.4339V14.6447C15.1083 14.2386 14.7791 13.9094 14.373 13.9094H5.35336V2.45325L6.68008 3.62704C6.95949 3.87411 7.37957 3.87286 7.65727 3.62435L9.71609 1.78317L11.7749 3.62411C12.0541 3.87388 12.4761 3.87388 12.7553 3.62411L14.8144 1.78294L16.8732 3.62411C17.1511 3.87263 17.5712 3.8736 17.8504 3.62681L19.1769 2.45329V16.4339V16.4339Z" fill="#333333"/>
</g>
<defs>
<clipPath id="clip0_882_8944">
<rect width="20" height="20" fill="white" transform="translate(0.647461)"/>
</clipPath>
</defs>
</svg>
