<svg width="74" height="44" viewBox="0 0 74 44" fill="none" xmlns="http://www.w3.org/2000/svg">
<path d="M11.107 8.87207H5.67896V10.0551H11.107V8.87207Z" fill="#3F4DE1" stroke="#3F4DE1" stroke-width="0.5"/>
<path d="M25.806 17.7833H15.5063V18.9663H25.806V17.7833Z" fill="#3F4DE1" stroke="#3F4DE1" stroke-width="0.5"/>
<path d="M25.8085 14.7109H19.4116V15.894H25.8085V14.7109Z" fill="#3F4DE1" stroke="#3F4DE1" stroke-width="0.5"/>
<path d="M25.8088 24.2106H21.5967V25.3936H25.8088V24.2106Z" fill="#3F4DE1" stroke="#3F4DE1" stroke-width="0.5"/>
<path d="M25.8088 26.2983H21.5967V27.4814H25.8088V26.2983Z" fill="#3F4DE1" stroke="#3F4DE1" stroke-width="0.5"/>
<path d="M1.71378 27.2798L1 27.2389L15.1671 7.1413H5.74409V1.35706H20.4513V1.90222H6.28689V6.59613H16.2147L1.71378 27.2798Z" fill="#3F4DE1" stroke="#3F4DE1" stroke-width="0.5"/>
<path d="M20.405 27.3972H5.69775V26.852H19.8622V22.1554H9.93432L24.4326 1.4744L25.1192 1.43896L10.9792 21.6102H20.405V27.3972Z" fill="#3F4DE1" stroke="#3F4DE1" stroke-width="0.5"/>
<path d="M29.7957 1H48.0745V1.74961H30.618V13.6915H46.4678V14.4411H30.618V26.5302H48.2591V27.2826H29.8038L29.7957 1Z" fill="#3F4DE1" stroke="#3F4DE1" stroke-width="0.5"/>
<path d="M54.5068 1H72.7857V1.74961H55.3292V13.6915H71.179V14.4411H55.3292V26.5302H72.9702V27.2826H54.515L54.5068 1Z" fill="#3F4DE1" stroke="#3F4DE1" stroke-width="0.5"/>
<path d="M1.05713 31.9056H1.39638V42.809H1.05713V31.9056Z" fill="#333333" stroke="#333333" stroke-width="0.5"/>
<path d="M4.729 31.9056H5.03569L13.2808 42.2393V31.9056H13.6065V42.809H13.3107L5.06826 32.4753V42.809H4.74259L4.729 31.9056Z" fill="#333333" stroke="#333333" stroke-width="0.5"/>
<path d="M15.7751 31.9056H16.1633L20.8585 42.3947L25.5537 31.9056H25.9093L20.9806 42.8772H20.7092L15.7751 31.9056Z" fill="#333333" stroke="#333333" stroke-width="0.5"/>
<path d="M26.9785 37.3684V37.3385C26.9785 34.3646 29.0873 31.7178 32.3713 31.7178C35.6552 31.7178 37.764 34.3646 37.764 37.3385V37.3684C37.764 40.3423 35.6579 42.9864 32.3713 42.9864C29.0846 42.9864 26.9785 40.3423 26.9785 37.3684ZM37.4247 37.3848V37.3521C37.4247 34.5663 35.3784 32.0312 32.3577 32.0312C29.337 32.0312 27.3205 34.5199 27.3205 37.3221V37.3521C27.3205 40.1379 29.3669 42.6757 32.3876 42.6757C35.4082 42.6757 37.4247 40.187 37.4247 37.3848Z" fill="#333333" stroke="#333333" stroke-width="0.5"/>
<path d="M40.6138 31.9056H40.9557V42.809H40.6138V31.9056Z" fill="#333333" stroke="#333333" stroke-width="0.5"/>
<path d="M43.8052 37.3848V37.3521C43.8052 34.2882 46.0388 31.7178 49.1382 31.7178C51.1819 31.7178 52.2512 32.481 53.2581 33.4459L53.0274 33.6804C52.1589 32.8408 51.0597 32.0449 49.1219 32.0449C46.2396 32.0449 44.1471 34.4981 44.1471 37.3521V37.3821C44.1471 40.2606 46.2695 42.6893 49.1219 42.6893C49.8675 42.6872 50.6043 42.5282 51.2849 42.2226C51.9656 41.9169 52.5748 41.4714 53.0735 40.9148L53.3205 41.1492C52.7859 41.7366 52.1346 42.2049 51.4086 42.5237C50.6826 42.8425 49.898 43.0048 49.1056 43C46.0524 42.9864 43.8052 40.465 43.8052 37.3848Z" fill="#333333" stroke="#333333" stroke-width="0.5"/>
<path d="M55.5352 31.9056H63.1154V32.2164H55.8771V37.1665H62.4478V37.4773H55.8771V42.4901H63.2049V42.8008H55.5487L55.5352 31.9056Z" fill="#333333" stroke="#333333" stroke-width="0.5"/>
<path d="M65.0154 41.2117L65.2624 40.9636C65.7976 41.4989 66.4327 41.9229 67.1312 42.2115C67.8298 42.5 68.5781 42.6475 69.3334 42.6455C71.3635 42.6455 72.6662 41.5388 72.6662 40.0777V40.045C72.6662 38.7066 71.852 37.9897 69.1162 37.4309C66.4348 36.8858 65.4116 36.0926 65.4116 34.5661V34.5361C65.4116 33.0096 66.8989 31.7503 68.9398 31.7503C70.2725 31.745 71.5695 32.183 72.6282 32.996L72.4111 33.2686C71.4073 32.491 70.1776 32.065 68.91 32.0556C67.0102 32.0556 65.7482 33.2386 65.7482 34.5088V34.5579C65.7482 35.8799 66.5841 36.5805 69.2492 37.1256C72.0718 37.7008 73 38.5567 73 40.0368V40.0668C73 41.686 71.5914 42.9617 69.2981 42.9617C67.6982 42.9603 66.1618 42.3325 65.0154 41.2117Z" fill="#333333" stroke="#333333" stroke-width="0.5"/>
</svg>
