<svg width="50" height="57" viewBox="0 0 50 57" fill="none" xmlns="http://www.w3.org/2000/svg">
<path fill-rule="evenodd" clip-rule="evenodd" d="M27 21.65C27 14.6626 21.4023 9 14.5 9C7.59773 9 2 14.6626 2 21.65C2 27.4391 5.84773 32.3082 11.0909 33.8101V36.6L8.81818 38.8977L11.0909 41.2V43.5L8.81818 45.8L11.0909 48.1V51.55L14.5 55L17.9091 51.55V33.8101C23.1523 32.3082 27 27.4391 27 21.65V21.65Z" stroke="#3F4DE1" stroke-width="2.5" stroke-linecap="round" stroke-linejoin="round"/>
<path fill-rule="evenodd" clip-rule="evenodd" d="M18 17.5C18 19.432 16.432 21 14.5 21C12.568 21 11 19.432 11 17.5C11 15.568 12.568 14 14.5 14C16.432 14 18 15.568 18 17.5V17.5Z" stroke="#3F4DE1" stroke-width="2" stroke-linecap="round" stroke-linejoin="round"/>
<path d="M18 35.4608C21.8585 37.6661 26.6354 37.6844 30.5192 35.5362L33 37.7164V41.1442H36.4615L37.6154 42.344V45.7147H40.6546L43.1054 48H48V43.153L35.4138 30.6892C38.1138 25.9062 37.4192 19.7474 33.3138 15.682C30.42 12.8163 26.4785 11.6234 22.71 12.1033" stroke="#3F4DE1" stroke-width="2.5" stroke-linecap="round" stroke-linejoin="round"/>
<path d="M15 17V6.61538C15 4.06769 17.016 2 19.5 2C21.984 2 24 4.06769 24 6.61538V11.8123" stroke="#3F4DE1" stroke-width="2.5" stroke-linecap="round" stroke-linejoin="round"/>
</svg>
