<svg width="20" height="16" viewBox="0 0 20 16" fill="none" xmlns="http://www.w3.org/2000/svg">
<path d="M2.00011 16C1.45011 16 0.979443 15.8043 0.588109 15.413C0.19611 15.021 0.000109434 14.55 0.000109434 14V1.99999C0.000109434 1.44999 0.19611 0.97932 0.588109 0.587987C0.979443 0.195987 1.45011 -1.28746e-05 2.00011 -1.28746e-05H18.0001C18.5501 -1.28746e-05 19.0211 0.195987 19.4131 0.587987C19.8044 0.97932 20.0001 1.44999 20.0001 1.99999V14C20.0001 14.55 19.8044 15.021 19.4131 15.413C19.0211 15.8043 18.5501 16 18.0001 16H2.00011ZM10.0001 8.82499C10.0834 8.82499 10.1708 8.81232 10.2621 8.78699C10.3541 8.76232 10.4418 8.72499 10.5251 8.67499L17.6001 4.24999C17.7334 4.16665 17.8334 4.06265 17.9001 3.93799C17.9668 3.81265 18.0001 3.67499 18.0001 3.52499C18.0001 3.19165 17.8584 2.94165 17.5751 2.77499C17.2918 2.60832 17.0001 2.61665 16.7001 2.79999L10.0001 6.99999L3.30011 2.79999C3.00011 2.61665 2.70844 2.61232 2.42511 2.78699C2.14178 2.96232 2.00011 3.20832 2.00011 3.52499C2.00011 3.69165 2.03344 3.83732 2.10011 3.96199C2.16678 4.08732 2.26678 4.18332 2.40011 4.24999L9.47511 8.67499C9.55844 8.72499 9.64611 8.76232 9.73811 8.78699C9.82944 8.81232 9.91678 8.82499 10.0001 8.82499Z" fill="#6B7280"/>
</svg>
