<svg width="15" height="15" viewBox="0 0 15 15" fill="none" xmlns="http://www.w3.org/2000/svg">
<path d="M10.819 0.0117188H4.02427C3.06562 0.0129241 2.14654 0.394322 1.46871 1.07212C0.790806 1.75003 0.409515 2.66903 0.408203 3.62769V10.4232C0.409509 11.3819 0.790806 12.3009 1.46871 12.9788C2.14651 13.6567 3.06562 14.038 4.02427 14.0393H10.819C11.7777 14.038 12.6968 13.6567 13.3746 12.9788C14.0525 12.301 14.4338 11.3819 14.4351 10.4232V3.62846C14.434 2.6697 14.0527 1.75052 13.3748 1.07251C12.697 0.394502 11.7778 0.0130045 10.819 0.0117959V0.0117188ZM13.5589 10.4232C13.5581 11.1496 13.2692 11.8461 12.7556 12.3598C12.2419 12.8734 11.5454 13.1622 10.819 13.163H4.02427C3.29785 13.1622 2.60135 12.8733 2.08768 12.3598C1.57409 11.8461 1.28521 11.1496 1.28442 10.4232V3.62843C1.28522 2.902 1.57411 2.20551 2.08768 1.69184C2.60137 1.17825 3.29785 0.889373 4.02427 0.888576H10.819C11.5454 0.88938 12.2419 1.17827 12.7556 1.69184C13.2692 2.20553 13.5581 2.902 13.5589 3.62843V10.4232ZM11.0376 7.0258C11.0376 7.14212 10.9914 7.25362 10.9092 7.33579C10.8269 7.41806 10.7154 7.46426 10.5992 7.46426H7.86012V10.2041C7.86012 10.3607 7.77655 10.5055 7.64085 10.5838C7.50525 10.6622 7.33811 10.6622 7.2025 10.5838C7.06679 10.5055 6.98322 10.3607 6.98322 10.2041V7.46426H4.24337C4.08677 7.46426 3.94202 7.38069 3.86367 7.24499C3.78532 7.10939 3.78532 6.94225 3.86367 6.80664C3.94202 6.67093 4.08676 6.58736 4.24337 6.58736H6.98322V3.84751C6.98322 3.69091 7.06679 3.54616 7.2025 3.46781C7.3381 3.38946 7.50523 3.38946 7.64085 3.46781C7.77655 3.54616 7.86012 3.6909 7.86012 3.84751V6.58736H10.6C10.7162 6.58756 10.8275 6.63387 10.9096 6.71603C10.9916 6.7982 11.0377 6.90969 11.0377 7.02581L11.0376 7.0258Z" fill="white"/>
</svg>
