<svg width="65" height="65" viewBox="0 0 65 65" fill="none" xmlns="http://www.w3.org/2000/svg">
<g filter="url(#filter0_d_480_9704)">
<circle cx="32.0212" cy="32.0212" r="19.0212" fill="white"/>
</g>
<g clip-path="url(#clip0_480_9704)">
<path d="M33.0655 43.2086H30.9771C30.2713 43.2086 29.6756 42.68 29.5917 41.978L29.3689 40.2289C28.9241 40.0844 28.4953 39.9063 28.0879 39.6984L26.695 40.7809C26.13 41.2181 25.3347 41.1678 24.8443 40.6634L23.3759 39.195C22.8753 38.7093 22.8249 37.914 23.2622 37.3499L24.3446 35.9561C24.1358 35.5487 23.9577 35.1198 23.8141 34.6751L22.0614 34.4523C21.3621 34.3665 20.8335 33.7708 20.8335 33.065V30.9766C20.8335 30.2709 21.3621 29.6751 22.0642 29.5912L23.8132 29.3684C23.9577 28.9237 24.1358 28.4948 24.3437 28.0874L23.2622 26.6945C22.824 26.1295 22.8753 25.3333 23.3806 24.8429L24.849 23.3745C25.3347 22.8738 26.1309 22.8244 26.694 23.2608L28.0869 24.3441C28.4943 24.1362 28.9232 23.9581 29.3689 23.8136L29.5917 22.0609C29.6756 21.3616 30.2713 20.833 30.9771 20.833H33.0655C33.7713 20.833 34.367 21.3616 34.4509 22.0637L34.6737 23.8127C35.1194 23.9572 35.5483 24.1353 35.9557 24.3432L37.3486 23.2608C37.9145 22.8235 38.7088 22.8738 39.1992 23.3792L40.6676 24.8476C41.1683 25.3333 41.2186 26.1286 40.7813 26.6926L39.6989 28.0864C39.9078 28.4939 40.0858 28.9227 40.2294 29.3674L41.9822 29.5903C42.6805 29.6751 43.2091 30.2709 43.2091 30.9766V33.065C43.2091 33.7708 42.6805 34.3665 41.9784 34.4504L40.2294 34.6733C40.0849 35.118 39.9068 35.5468 39.6989 35.9543L40.7813 37.3471C41.2195 37.9121 41.1683 38.7074 40.6629 39.1978L39.1945 40.6662C38.7088 41.1668 37.9126 41.2181 37.3495 40.7799L35.9557 39.6975C35.5483 39.9063 35.1194 40.0844 34.6747 40.228L34.4518 41.9808C34.367 42.68 33.7713 43.2086 33.0655 43.2086ZM28.0403 38.6776C28.1177 38.6776 28.1969 38.6971 28.2678 38.7363C28.7815 39.0234 29.3381 39.2547 29.9217 39.4225C30.1007 39.4738 30.2322 39.6267 30.2555 39.8113L30.5165 41.8623C30.5445 42.0964 30.7468 42.2763 30.9771 42.2763H33.0655C33.2958 42.2763 33.4981 42.0964 33.5251 41.867L33.7871 39.8122C33.8104 39.6276 33.9419 39.4747 34.1209 39.4234C34.7045 39.2556 35.2611 39.0244 35.7748 38.7372C35.938 38.6459 36.1412 38.6617 36.2876 38.7764L37.9191 40.0443C38.1065 40.1898 38.3694 40.1777 38.5298 40.0126L40.0075 38.5349C40.1763 38.3708 40.1893 38.1079 40.0439 37.9196L38.7759 36.288C38.6613 36.1407 38.6454 35.9384 38.7368 35.7753C39.0239 35.2615 39.2551 34.705 39.423 34.1213C39.4742 33.9423 39.6271 33.8109 39.8117 33.7876L41.8628 33.5265C42.0968 33.4976 42.2768 33.2953 42.2768 33.065V30.9766C42.2768 30.7463 42.0968 30.544 41.8675 30.517L39.8127 30.255C39.6281 30.2317 39.4752 30.1002 39.4239 29.9212C39.2561 29.3376 39.0249 28.781 38.7377 28.2673C38.6463 28.1041 38.6613 27.9018 38.7769 27.7545L40.0448 26.123C40.1912 25.9346 40.1781 25.6717 40.0141 25.5132L38.5363 24.0355C38.3732 23.8658 38.1093 23.8528 37.921 23.9992L36.2894 25.2671C36.1412 25.3818 35.9389 25.3976 35.7757 25.3063C35.2639 25.0191 34.7073 24.7888 34.1218 24.6201C33.9428 24.5688 33.8113 24.4159 33.788 24.2313L33.527 22.1802C33.4981 21.9453 33.2958 21.7653 33.0655 21.7653H30.9771C30.7468 21.7653 30.5445 21.9453 30.5175 22.1746L30.2555 24.2294C30.2322 24.414 30.1007 24.5669 29.9217 24.6191C29.3362 24.787 28.7796 25.0182 28.2678 25.3044C28.1046 25.3967 27.9023 25.3799 27.7541 25.2662L26.1225 23.9982C25.9342 23.8519 25.6722 23.8649 25.5128 24.029L24.0351 25.5076C23.8663 25.6717 23.8533 25.9346 23.9987 26.123L25.2667 27.7545C25.3813 27.9018 25.3972 28.1041 25.3058 28.2673C25.0177 28.781 24.7875 29.3376 24.6196 29.9212C24.5684 30.1002 24.4155 30.2317 24.2309 30.255L22.1798 30.5161C21.9458 30.544 21.7658 30.7463 21.7658 30.9766V33.065C21.7658 33.2953 21.9458 33.4976 22.1751 33.5246L24.2299 33.7866C24.4145 33.8099 24.5674 33.9414 24.6187 34.1204C24.7865 34.704 25.0177 35.2606 25.3049 35.7743C25.3963 35.9375 25.3813 36.1398 25.2657 36.2871L23.9978 37.9186C23.8514 38.107 23.8645 38.3699 24.0285 38.5284L25.5063 40.0061C25.6694 40.1749 25.9314 40.1879 26.1216 40.0425L27.7532 38.7745C27.838 38.7111 27.9387 38.6776 28.0403 38.6776Z" fill="black"/>
<path d="M32.0214 36.6825C29.4511 36.6825 27.3599 34.5914 27.3599 32.021C27.3599 29.4506 29.4511 27.3594 32.0214 27.3594C34.5918 27.3594 36.683 29.4506 36.683 32.021C36.683 34.5914 34.5918 36.6825 32.0214 36.6825ZM32.0214 28.2917C29.9648 28.2917 28.2922 29.9643 28.2922 32.021C28.2922 34.0777 29.9648 35.7502 32.0214 35.7502C34.0781 35.7502 35.7507 34.0777 35.7507 32.021C35.7507 29.9643 34.0781 28.2917 32.0214 28.2917Z" fill="black"/>
</g>
<defs>
<filter id="filter0_d_480_9704" x="0" y="0" width="64.0425" height="64.0425" filterUnits="userSpaceOnUse" color-interpolation-filters="sRGB">
<feFlood flood-opacity="0" result="BackgroundImageFix"/>
<feColorMatrix in="SourceAlpha" type="matrix" values="0 0 0 0 0 0 0 0 0 0 0 0 0 0 0 0 0 0 127 0" result="hardAlpha"/>
<feOffset/>
<feGaussianBlur stdDeviation="6.5"/>
<feComposite in2="hardAlpha" operator="out"/>
<feColorMatrix type="matrix" values="0 0 0 0 0 0 0 0 0 0 0 0 0 0 0 0 0 0 0.1 0"/>
<feBlend mode="normal" in2="BackgroundImageFix" result="effect1_dropShadow_480_9704"/>
<feBlend mode="normal" in="SourceGraphic" in2="effect1_dropShadow_480_9704" result="shape"/>
</filter>
<clipPath id="clip0_480_9704">
<rect width="22.3756" height="22.3756" fill="white" transform="translate(20.8335 20.833)"/>
</clipPath>
</defs>
</svg>
