<svg width="52" height="60" viewBox="0 0 52 60" fill="none" xmlns="http://www.w3.org/2000/svg">
<path fill-rule="evenodd" clip-rule="evenodd" d="M26.5 21.65C26.5 14.6626 20.9023 9 14 9C7.09773 9 1.5 14.6626 1.5 21.65C1.5 27.4391 5.34773 32.3082 10.5909 33.8101V36.6L8.31818 38.8977L10.5909 41.2V43.5L8.31818 45.8L10.5909 48.1V51.55L14 55L17.4091 51.55V33.8101C22.6523 32.3082 26.5 27.4391 26.5 21.65V21.65Z" stroke="#0041B2" stroke-width="2.5" stroke-linecap="round" stroke-linejoin="round"/>
<path fill-rule="evenodd" clip-rule="evenodd" d="M17.5 17.5C17.5 19.432 15.932 21 14 21C12.068 21 10.5 19.432 10.5 17.5C10.5 15.568 12.068 14 14 14C15.932 14 17.5 15.568 17.5 17.5V17.5Z" stroke="#0041B2" stroke-width="2" stroke-linecap="round" stroke-linejoin="round"/>
<path d="M17.5 35.4608C21.3585 37.6661 26.1354 37.6844 30.0192 35.5362L32.5 37.7164V41.1442H35.9615L37.1154 42.344V45.7147H40.1546L42.6054 48H47.5V43.153L34.9138 30.6892C37.6138 25.9062 36.9192 19.7474 32.8138 15.682C29.92 12.8163 25.9785 11.6234 22.21 12.1033" stroke="#0041B2" stroke-width="2.5" stroke-linecap="round" stroke-linejoin="round"/>
<path d="M14.5 17V6.61538C14.5 4.06769 16.516 2 19 2C21.484 2 23.5 4.06769 23.5 6.61538V11.8123" stroke="#0041B2" stroke-width="2.5" stroke-linecap="round" stroke-linejoin="round"/>
<circle cx="37" cy="45.5" r="13.5" fill="#13BD38" stroke="white" stroke-width="2"/>
<path d="M43.5 43L35.5 51L31.5 47" stroke="white" stroke-width="2.5" stroke-linecap="round" stroke-linejoin="round"/>
</svg>
