<svg width="28" height="28" viewBox="0 0 28 28" fill="none" xmlns="http://www.w3.org/2000/svg">
<ellipse cx="13.6796" cy="13.815" rx="13.6796" ry="13.815" fill="white"/>
<path d="M19.7446 10.8379C19.3352 11.0217 18.903 11.1365 18.4481 11.2055C18.903 10.9298 19.2669 10.4933 19.4262 9.965C18.994 10.2177 18.5163 10.4015 17.9931 10.5163C17.5837 10.0799 16.9923 9.8042 16.3554 9.8042C15.1271 9.8042 14.1263 10.8149 14.1263 12.0554C14.1263 12.2392 14.149 12.4 14.1945 12.5608C12.3521 12.4689 10.6916 11.573 9.57704 10.1947C9.39507 10.5393 9.28134 10.9068 9.28134 11.3203C9.28134 12.1013 9.66803 12.7905 10.2822 13.204C9.91823 13.181 9.57704 13.0891 9.25859 12.9283V12.9513C9.25859 14.0539 10.032 14.9728 11.0555 15.1795C10.8736 15.2254 10.6689 15.2484 10.4641 15.2484C10.3277 15.2484 10.1684 15.2254 10.032 15.2025C10.3277 16.0984 11.1465 16.7645 12.1246 16.7645C11.3512 17.3618 10.3959 17.7293 9.34958 17.7293H9.34957C9.1676 17.7293 8.98564 17.7293 8.82642 17.7063C9.82725 18.3495 10.9873 18.7171 12.2611 18.7171C16.3782 18.7171 18.63 15.2714 18.63 12.2851V11.9865C19.0622 11.6879 19.4489 11.2973 19.7446 10.8379Z" fill="#333333"/>
<path d="M19.7446 10.8379C19.3352 11.0217 18.903 11.1365 18.4481 11.2055C18.903 10.9298 19.2669 10.4933 19.4262 9.965C18.994 10.2177 18.5163 10.4015 17.9931 10.5163C17.5837 10.0799 16.9923 9.8042 16.3554 9.8042C15.1271 9.8042 14.1263 10.8149 14.1263 12.0554C14.1263 12.2392 14.149 12.4 14.1945 12.5608C12.3521 12.4689 10.6916 11.573 9.57704 10.1947C9.39507 10.5393 9.28134 10.9068 9.28134 11.3203C9.28134 12.1013 9.66803 12.7905 10.2822 13.204C9.91823 13.181 9.57704 13.0891 9.25859 12.9283V12.9513C9.25859 14.0539 10.032 14.9728 11.0555 15.1795C10.8736 15.2254 10.6689 15.2484 10.4641 15.2484C10.3277 15.2484 10.1684 15.2254 10.032 15.2025C10.3277 16.0984 11.1465 16.7645 12.1246 16.7645C11.3512 17.3618 10.3959 17.7293 9.34958 17.7293H9.34957C9.1676 17.7293 8.98564 17.7293 8.82642 17.7063C9.82725 18.3495 10.9873 18.7171 12.2611 18.7171C16.3782 18.7171 18.63 15.2714 18.63 12.2851V11.9865C19.0622 11.6879 19.4489 11.2973 19.7446 10.8379Z" stroke="#333333"/>
</svg>
