<svg width="34" height="31" viewBox="0 0 34 31" fill="none" xmlns="http://www.w3.org/2000/svg">
<path d="M31.1905 29.7893H3.30737C2.59714 29.7893 1.91612 29.4875 1.41391 28.9501C0.911891 28.4127 0.629639 27.684 0.629639 26.924V3.53921C0.629639 2.77925 0.911871 2.05053 1.41391 1.51315C1.91612 0.975762 2.59714 0.67395 3.30737 0.67395H31.1905C31.9006 0.67395 32.5816 0.975746 33.0838 1.51315C33.586 2.05053 33.8681 2.77925 33.8681 3.53921V26.924C33.8681 27.684 33.586 28.4127 33.0838 28.9501C32.5816 29.4874 31.9006 29.7893 31.1905 29.7893ZM3.30737 2.90803C2.98167 2.90803 2.71745 3.19053 2.71745 3.53926V26.924C2.71745 27.2728 2.98165 27.5553 3.30737 27.5553H31.1905C31.5141 27.5522 31.7751 27.2705 31.7751 26.924V3.53926C31.7751 3.19278 31.5141 2.9111 31.1905 2.90803H3.30737Z" fill="#374151"/>
<path d="M6.69514 24.9467H27.3177C27.539 24.9534 27.7546 24.871 27.9218 24.7154C28.0889 24.5601 28.1951 24.3429 28.2196 24.1076C28.2439 23.872 28.1849 23.6354 28.0537 23.4443L25.209 19.3114C25.0587 19.0888 24.8254 18.9474 24.5698 18.9237C24.3143 18.9001 24.0617 18.9968 23.878 19.1885L20.9551 22.1654L14.1696 12.3078V12.3076C13.9983 12.0578 13.7228 11.9138 13.4332 11.9228C13.1436 11.9317 12.8765 12.0923 12.7186 12.3525L5.93321 23.4891L5.9334 23.4889C5.8161 23.6822 5.76884 23.9146 5.80073 24.1422C5.83242 24.3701 5.9408 24.5777 6.10573 24.7257C6.27048 24.874 6.48021 24.9526 6.69545 24.9467L6.69514 24.9467Z" fill="#374151"/>
<path d="M26.5189 9.11891C26.5189 10.948 25.133 12.4309 23.4236 12.4309C21.7141 12.4309 20.3284 10.948 20.3284 9.11891C20.3284 7.28963 21.7141 5.80688 23.4236 5.80688C25.133 5.80688 26.5189 7.28969 26.5189 9.11891Z" fill="#374151"/>
</svg>
