<svg width="45" height="45" viewBox="0 0 45 45" fill="none" xmlns="http://www.w3.org/2000/svg">
<path opacity="0.25" d="M44.0004 22.5C44.0004 34.3741 34.3745 44 22.5004 44C10.6262 44 1.00037 34.3741 1.00037 22.5C1.00037 10.6259 10.6262 1 22.5004 1C34.3745 1 44.0004 10.6259 44.0004 22.5Z" stroke="white" stroke-width="2"/>
<path fill-rule="evenodd" clip-rule="evenodd" d="M29.2663 17.3431C29.9514 17.5244 30.491 18.0559 30.6749 18.7295C31.0162 19.9588 31.0002 22.522 31.0002 22.522C31.0002 22.522 30.9979 25.071 30.6669 26.2996C30.4806 26.9724 29.9386 27.5031 29.2543 27.6836C28.0024 28.0055 22.9939 28 22.9939 28C22.9939 28 17.999 27.9945 16.7343 27.6569C16.0484 27.4756 15.5088 26.9441 15.3249 26.2713C14.9972 25.0545 15.0004 22.4921 15.0004 22.4921C15.0004 22.4921 15.0036 19.9423 15.3337 18.713C15.5192 18.0402 16.074 17.4969 16.7455 17.3172C17.9982 16.9945 23.0059 17 23.0059 17C23.0059 17 28.0144 17.0055 29.2663 17.3431ZM21.4078 20.1445L21.4038 24.8548L25.5705 22.5036L21.4078 20.1445Z" fill="white"/>
</svg>
