<svg width="133" height="41" viewBox="0 0 133 41" fill="none" xmlns="http://www.w3.org/2000/svg">
<path d="M30.9281 15.5238C30.9506 17.4613 29.3797 18.9936 27.914 19.1408C26.9389 19.2386 25.9403 19.304 25.0072 19.5722C23.7167 19.9431 22.5313 20.5701 21.6036 21.6045C20.5287 22.8041 19.9274 24.1288 19.8223 25.7961C19.7191 27.4382 19.1522 29.0461 17.3365 29.6359C14.5502 30.5421 11.433 29.2376 11.4684 25.9402C11.4834 24.5784 12.4509 23.1277 13.9961 22.5571C14.825 22.2507 15.6194 22.289 16.4334 22.175C18.873 21.8354 20.8004 20.6821 21.9858 18.4613C22.5538 17.3977 22.8792 16.2667 22.8287 15.0399C22.7825 13.9098 22.28 12.5902 21.6089 11.7142C20.4762 10.2354 19.3433 9.41278 17.6307 8.93595C16.1962 8.53575 14.6994 8.56195 13.1993 9.04886C11.9291 9.46116 10.9809 10.2142 10.0887 11.1245C9.14163 12.0923 8.63481 13.2465 8.55642 14.5943C8.48126 15.8876 8.17953 17.1317 7.24644 18.0651C6.29082 19.0218 5.12579 19.3796 3.70737 19.1931C2.45644 19.0288 1.5953 18.4744 0.855489 17.5187C-0.255841 16.0833 -0.117327 14.0722 1.25599 12.8373C2.21378 11.9754 3.2478 11.6134 4.63831 11.4965C7.28939 11.2727 10.4935 9.35633 11.1088 6.66173C11.2429 6.072 11.3868 5.47421 11.4266 4.8744C11.535 3.21208 12.524 1.66065 14.2515 1.1687C16.8479 0.429782 18.8321 1.4056 19.587 4.02761C19.7148 4.47217 19.8276 4.93187 19.8619 5.39154C20.0273 7.64057 21.1418 9.25047 23.0574 10.3967C24.2858 11.1315 25.571 11.3806 27.0044 11.5247C28.9104 11.7152 30.8431 13.1265 30.9281 15.5238Z" fill="#0066B3"/>
<path d="M0.12085 25.813C0.12085 23.8756 1.71 22.3593 3.17782 22.2272C4.15386 22.1396 5.15351 22.0852 6.08982 21.8261C7.38476 21.4682 8.5777 20.8542 9.51721 19.829C10.606 18.6415 11.2234 17.323 11.348 15.6566C11.4704 14.0155 12.0566 12.4137 13.8787 11.8431C16.676 10.966 19.778 12.3037 19.7029 15.6002C19.6717 16.962 18.687 18.4027 17.1355 18.957C16.3033 19.2544 15.5087 19.208 14.6937 19.313C12.25 19.6274 10.3086 20.7606 9.09743 22.9682C8.51649 24.0257 8.17827 25.1527 8.2137 26.3806C8.24698 27.5106 8.70762 28.4874 9.23053 29.4471C10.1293 31.0984 11.6314 32.043 13.3387 32.5389C14.7689 32.9543 16.2658 32.9432 17.7712 32.4723C19.0468 32.0732 20.0035 31.3313 20.9065 30.429C21.8653 29.4713 22.3862 28.3232 22.4796 26.9753C22.5697 25.6829 22.8866 24.4429 23.8303 23.5187C24.7977 22.5721 25.966 22.2263 27.3833 22.4279C28.6321 22.6053 29.4868 23.1688 30.2148 24.1325C31.3091 25.5792 31.1458 27.5892 29.7585 28.809C28.79 29.6609 27.7528 30.0116 26.3601 30.1144C23.7068 30.3101 20.4802 32.1932 19.8328 34.8807C19.691 35.4695 19.5407 36.0652 19.4945 36.665C19.3658 38.3264 18.3596 39.8677 16.6254 40.3414C14.0205 41.0532 12.048 40.0562 11.3243 37.427C11.202 36.9816 11.0945 36.5198 11.0656 36.0601C10.926 33.8102 9.83185 32.1882 7.93022 31.0218C6.71045 30.2738 5.42839 30.0116 3.99602 29.8524C2.09225 29.6428 0.176685 28.2113 0.12085 25.813Z" fill="#0066B3"/>
<path d="M55.6979 22.958V26.4285H39.281V23.6679L49.5819 11.4949H39.4956V8.02441H55.2955V10.785L45.0216 22.958H55.6979ZM70.8514 22.4847H62.1332L60.4701 26.4285H56.0171L64.3866 8.02441H68.6785L77.0748 26.4285H72.5145L70.8514 22.4847ZM69.4833 19.2509L66.5057 12.2048L63.5281 19.2509H69.4833ZM87.1508 8.02441C88.8137 8.02441 90.2537 8.29609 91.4695 8.83945C92.7038 9.38281 93.6515 10.1541 94.3135 11.1531C94.9746 12.1522 95.306 13.3353 95.306 14.7025C95.306 16.0521 94.9746 17.2352 94.3135 18.2519C93.6515 19.2509 92.7038 20.0221 91.4695 20.5654C90.2537 21.0913 88.8137 21.3542 87.1508 21.3542H83.3685V26.4285H79.0228V8.02441H87.1508ZM86.9094 17.8838C88.215 17.8838 89.2075 17.6121 89.8871 17.0687C90.5667 16.5079 90.906 15.7191 90.906 14.7025C90.906 13.6684 90.5667 12.8796 89.8871 12.3363C89.2075 11.7753 88.215 11.4949 86.9094 11.4949H83.3685V17.8838H86.9094ZM101.774 11.4949H95.7649V8.02441H112.128V11.4949H106.119V26.4285H101.774V11.4949ZM125.89 22.4847H117.172L115.508 26.4285H111.055L119.425 8.02441H123.717L132.113 26.4285H127.553L125.89 22.4847ZM124.522 19.2509L121.544 12.2048L118.567 19.2509H124.522Z" fill="#0066B3"/>
<path d="M40.1682 36.178H38.2961V35.0968H43.3943V36.178H41.5222V40.8307H40.1682V36.178ZM50.8255 39.7658V40.8307H46.2957V35.0968H50.7168V36.1617H47.6412V37.4067H50.3574V38.4389H47.6412V39.7658H50.8255ZM56.8592 40.929C56.2629 40.929 55.7226 40.8034 55.2378 40.5522C54.7586 40.2956 54.3797 39.9433 54.1012 39.4955C53.8281 39.0422 53.6917 38.5318 53.6917 37.9638C53.6917 37.3958 53.8281 36.8879 54.1012 36.4401C54.3797 35.9869 54.7586 35.6347 55.2378 35.3835C55.7226 35.1268 56.2658 34.9985 56.8675 34.9985C57.3745 34.9985 57.8313 35.0858 58.2382 35.2606C58.6504 35.4355 58.9959 35.6866 59.2745 36.0142L58.4053 36.8006C58.0097 36.3529 57.5194 36.1289 56.9344 36.1289C56.5722 36.1289 56.2491 36.208 55.9649 36.3665C55.6808 36.5193 55.4578 36.7351 55.2964 37.0136C55.1402 37.2921 55.0623 37.6088 55.0623 37.9638C55.0623 38.3188 55.1402 38.6354 55.2964 38.914C55.4578 39.1925 55.6808 39.4108 55.9649 39.5693C56.2491 39.7221 56.5722 39.7987 56.9344 39.7987C57.5194 39.7987 58.0097 39.572 58.4053 39.1187L59.2745 39.9051C58.9959 40.2382 58.6504 40.4921 58.2382 40.6669C57.8259 40.8417 57.3662 40.929 56.8592 40.929ZM67.7272 35.0968V40.8307H66.3733V38.4798H63.7155V40.8307H62.3617V35.0968H63.7155V37.3576H66.3733V35.0968H67.7272ZM76.6499 35.0968V40.8307H75.5383L72.6216 37.3494V40.8307H71.2843V35.0968H72.4043L75.3128 38.5781V35.0968H76.6499ZM83.0401 40.929C82.4329 40.929 81.884 40.8007 81.3937 40.5441C80.909 40.2873 80.5274 39.9351 80.2488 39.4873C79.9758 39.034 79.8393 38.5262 79.8393 37.9638C79.8393 37.4013 79.9758 36.8961 80.2488 36.4484C80.5274 35.9951 80.909 35.6402 81.3937 35.3835C81.884 35.1268 82.4329 34.9985 83.0401 34.9985C83.6474 34.9985 84.1936 35.1268 84.6782 35.3835C85.163 35.6402 85.5446 35.9951 85.8233 36.4484C86.1019 36.8961 86.2411 37.4013 86.2411 37.9638C86.2411 38.5262 86.1019 39.034 85.8233 39.4873C85.5446 39.9351 85.163 40.2873 84.6782 40.5441C84.1936 40.8007 83.6474 40.929 83.0401 40.929ZM83.0401 39.7987C83.3856 39.7987 83.6976 39.7221 83.9762 39.5693C84.2548 39.4108 84.4722 39.1925 84.6281 38.914C84.7898 38.6354 84.8705 38.3188 84.8705 37.9638C84.8705 37.6088 84.7898 37.2921 84.6281 37.0136C84.4722 36.7351 84.2548 36.5193 83.9762 36.3665C83.6976 36.208 83.3856 36.1289 83.0401 36.1289C82.6947 36.1289 82.3827 36.208 82.1042 36.3665C81.8256 36.5193 81.6055 36.7351 81.4439 37.0136C81.288 37.2921 81.2099 37.6088 81.2099 37.9638C81.2099 38.3188 81.288 38.6354 81.4439 38.914C81.6055 39.1925 81.8256 39.4108 82.1042 39.5693C82.3827 39.7221 82.6947 39.7987 83.0401 39.7987ZM89.4316 35.0968H90.7854V39.7494H93.719V40.8307H89.4316V35.0968ZM99.3841 40.929C98.7766 40.929 98.2272 40.8007 97.7375 40.5441C97.2522 40.2873 96.8707 39.9351 96.592 39.4873C96.3195 39.034 96.1832 38.5262 96.1832 37.9638C96.1832 37.4013 96.3195 36.8961 96.592 36.4484C96.8707 35.9951 97.2522 35.6402 97.7375 35.3835C98.2272 35.1268 98.7766 34.9985 99.3841 34.9985C99.9907 34.9985 100.537 35.1268 101.022 35.3835C101.506 35.6402 101.888 35.9951 102.167 36.4484C102.445 36.8961 102.585 37.4013 102.585 37.9638C102.585 38.5262 102.445 39.034 102.167 39.4873C101.888 39.9351 101.506 40.2873 101.022 40.5441C100.537 40.8007 99.9907 40.929 99.3841 40.929ZM99.3841 39.7987C99.7296 39.7987 100.041 39.7221 100.319 39.5693C100.598 39.4108 100.815 39.1925 100.972 38.914C101.134 38.6354 101.214 38.3188 101.214 37.9638C101.214 37.6088 101.134 37.2921 100.972 37.0136C100.815 36.7351 100.598 36.5193 100.319 36.3665C100.041 36.208 99.7296 36.1289 99.3841 36.1289C99.0386 36.1289 98.7265 36.208 98.4478 36.3665C98.1691 36.5193 97.9494 36.7351 97.7876 37.0136C97.6311 37.2921 97.5538 37.6088 97.5538 37.9638C97.5538 38.3188 97.6311 38.6354 97.7876 38.914C97.9494 39.1925 98.1691 39.4108 98.4478 39.5693C98.7265 39.7221 99.0386 39.7987 99.3841 39.7987ZM109.728 37.8737H110.965V40.2C110.647 40.4348 110.28 40.615 109.861 40.7406C109.444 40.8663 109.024 40.929 108.6 40.929C107.992 40.929 107.447 40.8034 106.962 40.5522C106.477 40.2956 106.095 39.9433 105.817 39.4955C105.544 39.0422 105.407 38.5318 105.407 37.9638C105.407 37.3958 105.544 36.8879 105.817 36.4401C106.095 35.9869 106.479 35.6347 106.97 35.3835C107.461 35.1268 108.012 34.9985 108.625 34.9985C109.138 34.9985 109.603 35.0832 110.021 35.2525C110.438 35.4217 110.79 35.6674 111.074 35.9897L110.204 36.776C109.787 36.3447 109.282 36.1289 108.692 36.1289C108.319 36.1289 107.987 36.2054 107.697 36.3583C107.408 36.5111 107.182 36.7269 107.02 37.0054C106.859 37.2839 106.778 37.6034 106.778 37.9638C106.778 38.3188 106.859 38.6354 107.02 38.914C107.182 39.1925 107.405 39.4108 107.689 39.5693C107.978 39.7221 108.307 39.7987 108.676 39.7987C109.065 39.7987 109.417 39.7167 109.728 39.5529V37.8737ZM114.396 35.0968H115.75V40.8307H114.396V35.0968ZM123.84 39.7658V40.8307H119.311V35.0968H123.732V36.1617H120.656V37.4067H123.373V38.4389H120.656V39.7658H123.84ZM129.013 40.929C128.551 40.929 128.102 40.8689 127.668 40.7488C127.238 40.6232 126.894 40.4621 126.632 40.2655L127.091 39.2662C127.342 39.4464 127.64 39.5911 127.985 39.7003C128.331 39.8096 128.676 39.8641 129.022 39.8641C129.406 39.8641 129.69 39.8096 129.874 39.7003C130.058 39.5857 130.15 39.4355 130.15 39.2498C130.15 39.1133 130.095 39.0013 129.983 38.914C129.877 38.8211 129.738 38.7474 129.565 38.6928C129.397 38.6382 129.17 38.5781 128.88 38.5126C128.434 38.4089 128.069 38.305 127.785 38.2013C127.5 38.0976 127.256 37.931 127.049 37.7017C126.849 37.4723 126.749 37.1664 126.749 36.7842C126.749 36.4512 126.84 36.1507 127.025 35.8832C127.208 35.6101 127.484 35.3945 127.852 35.2361C128.225 35.0776 128.679 34.9985 129.214 34.9985C129.587 34.9985 129.952 35.0422 130.309 35.1296C130.665 35.2169 130.977 35.3426 131.244 35.5064L130.827 36.5139C130.286 36.2136 129.745 36.0633 129.206 36.0633C128.827 36.0633 128.545 36.1235 128.362 36.2436C128.183 36.3637 128.094 36.5221 128.094 36.7187C128.094 36.9153 128.197 37.0628 128.403 37.161C128.615 37.2539 128.935 37.3467 129.364 37.4396C129.81 37.5432 130.175 37.647 130.459 37.7508C130.743 37.8545 130.986 38.0183 131.186 38.2423C131.392 38.4662 131.496 38.7693 131.496 39.1515C131.496 39.4792 131.401 39.7794 131.211 40.0526C131.027 40.3201 130.749 40.533 130.376 40.6915C130.002 40.8499 129.549 40.929 129.013 40.929Z" fill="#0066B3"/>
</svg>
