<svg width="96" height="36" viewBox="0 0 96 36" fill="none" xmlns="http://www.w3.org/2000/svg">
<g clip-path="url(#clip0_1243_43039)">
<path d="M49.1156 18.0001L59.9487 2.38456V-0.0118408H44.2957V3.21433H55.1973L44.3553 18.8299V21.2263H60.0083V18.0001H49.1156Z" fill="#333333"/>
<path d="M67.8854 18V12.2157H77.0959V8.98952H67.8854V3.22616H77.8087V0H64.0557V21.2351H77.8922V18H67.8854Z" fill="#333333"/>
<path d="M85.8799 18V12.2157H95.0904V8.98952H85.8799V3.22616H95.8003V0H82.0502V21.2351H95.8868V18H85.8799Z" fill="#333333"/>
<path d="M44.373 26.5731V34.6131H45.581V26.5731H44.373Z" fill="#333333"/>
<path d="M52.7961 26.5731V32.4773H52.7216L48.6502 26.5731H47.5317V34.6131H48.7397V28.7179H48.8143L52.8826 34.6131H53.9922V26.5731H52.7961Z" fill="#333333"/>
<path d="M61.1894 26.5731L58.9613 33.1213H58.8719L56.6498 26.5731H55.3374L58.2187 34.6131H59.6145L62.4928 26.5731H61.1894Z" fill="#333333"/>
<path d="M69.9255 28.3825C69.639 27.796 69.1934 27.3028 68.6399 26.9596C68.0759 26.6357 67.4374 26.4653 66.7877 26.4653C66.138 26.4653 65.4995 26.6357 64.9355 26.9596C64.382 27.3028 63.9364 27.796 63.6499 28.3825C63.3412 29.0783 63.1816 29.8315 63.1816 30.5932C63.1816 31.3549 63.3412 32.1081 63.6499 32.8039C63.9355 33.3909 64.3814 33.8844 64.9355 34.2267C65.4989 34.5524 66.1376 34.7238 66.7877 34.7238C67.4378 34.7238 68.0765 34.5524 68.6399 34.2267C69.1939 33.8856 69.6398 33.3931 69.9255 32.8069C70.2343 32.1106 70.3938 31.3569 70.3938 30.5947C70.3938 29.8325 70.2343 29.0788 69.9255 28.3825ZM68.8785 32.2497C68.6965 32.6664 68.3981 33.0212 68.0195 33.2712C67.6479 33.4984 67.2213 33.6187 66.7862 33.6187C66.3511 33.6187 65.9244 33.4984 65.5529 33.2712C65.1743 33.0212 64.8759 32.6664 64.6939 32.2497C64.2723 31.187 64.2723 30.0024 64.6939 28.9397C64.8759 28.523 65.1743 28.1682 65.5529 27.9182C65.9244 27.6909 66.3511 27.5707 66.7862 27.5707C67.2213 27.5707 67.6479 27.6909 68.0195 27.9182C68.3981 28.1682 68.6965 28.523 68.8785 28.9397C69.3001 30.0024 69.3001 31.187 68.8785 32.2497Z" fill="#333333"/>
<path d="M72.085 26.5731V34.6131H73.278V26.5731H72.085Z" fill="#333333"/>
<path d="M80.4067 32.7049C80.2799 32.898 80.1204 33.0673 79.9354 33.2052C79.7466 33.3388 79.5369 33.44 79.315 33.5047C79.0809 33.5751 78.8377 33.6105 78.5932 33.6096C78.1579 33.6148 77.7303 33.4942 77.3614 33.2621C76.9813 33.0129 76.6818 32.658 76.4994 32.2406C76.0839 31.1819 76.0839 30.0043 76.4994 28.9456C76.6838 28.5286 76.9828 28.1732 77.3614 27.9211C77.7302 27.686 78.1594 27.5642 78.5962 27.5706C78.8428 27.5692 79.0883 27.6056 79.324 27.6785C79.5454 27.742 79.7543 27.8433 79.9414 27.978C80.1273 28.1183 80.2869 28.2908 80.4126 28.4873C80.5439 28.6973 80.6322 28.9315 80.6721 29.1762H81.8921C81.8351 28.7715 81.7025 28.3812 81.5013 28.0259C81.316 27.695 81.0677 27.4039 80.7706 27.1692C80.4736 26.9337 80.1373 26.7532 79.7773 26.636C79.392 26.5111 78.9892 26.4494 78.5843 26.4533C77.9341 26.4419 77.2936 26.6131 76.735 26.9476C76.1825 27.2909 75.7378 27.7842 75.4525 28.3704C75.1446 29.0664 74.9856 29.8195 74.9856 30.5811C74.9856 31.3427 75.1446 32.0958 75.4525 32.7918C75.7367 33.3779 76.1804 33.8712 76.732 34.2147C77.2919 34.5515 77.9347 34.7238 78.5873 34.7119C79.0009 34.7154 79.4121 34.6496 79.8042 34.5172C80.1664 34.3919 80.5036 34.2033 80.8004 33.96C81.0895 33.7212 81.3322 33.4307 81.5162 33.1033C81.7041 32.7658 81.8313 32.3977 81.8921 32.0159H80.6721C80.6304 32.2611 80.5402 32.4954 80.4067 32.7049Z" fill="#333333"/>
<path d="M84.7375 33.5767V31.1144H88.2869V30.075H84.7375V27.6247H88.5643V26.5792H83.5295V34.6192H88.6001V33.5767H84.7375Z" fill="#333333"/>
<path d="M95.7851 31.4618C95.6479 31.2075 95.4588 30.985 95.2303 30.8088C95.0006 30.6353 94.7488 30.4932 94.4817 30.3864C94.2264 30.2835 93.9643 30.1984 93.6973 30.1318L92.9158 29.9281C92.7577 29.8862 92.5967 29.8383 92.4266 29.7753C92.2604 29.7167 92.1013 29.6394 91.9524 29.5447C91.8096 29.4561 91.6875 29.3376 91.5945 29.1972C91.5029 29.049 91.4563 28.8773 91.4603 28.7029C91.4603 28.4872 91.5293 28.2772 91.6571 28.1038C91.8021 27.9148 91.9946 27.768 92.2149 27.6785C92.4862 27.5708 92.7762 27.5188 93.0679 27.5257C93.4691 27.5082 93.8662 27.6126 94.2073 27.8253C94.3535 27.9205 94.4763 28.048 94.5662 28.198C94.6561 28.348 94.7109 28.5166 94.7263 28.691H95.8895C95.8869 28.2785 95.7554 27.8772 95.5137 27.5437C95.2608 27.1995 94.9224 26.9278 94.5324 26.7559C94.08 26.554 93.5898 26.4518 93.0948 26.4563C92.5969 26.4519 92.1037 26.554 91.6482 26.7559C91.2443 26.9297 90.8934 27.2077 90.6311 27.5617C90.3797 27.9151 90.249 28.3406 90.2582 28.7748C90.2474 29.0275 90.292 29.2795 90.3889 29.513C90.4858 29.7465 90.6326 29.9557 90.819 30.1258C91.2575 30.5014 91.779 30.7664 92.3401 30.8987L93.2856 31.1593C93.5499 31.2257 93.8083 31.3139 94.0581 31.4229C94.2642 31.5064 94.4494 31.6342 94.601 31.7973C94.7425 31.9635 94.8151 32.178 94.8038 32.3964C94.8082 32.6444 94.7259 32.8861 94.5712 33.0794C94.4051 33.2843 94.1879 33.4413 93.9418 33.5347C93.6513 33.649 93.3412 33.705 93.0291 33.6995C92.7379 33.7022 92.4483 33.6546 92.1731 33.5587C91.9269 33.4757 91.7074 33.3278 91.5378 33.1303C91.3608 32.9299 91.2558 32.6757 91.2395 32.4084H90.0554C90.0706 32.8567 90.2134 33.2913 90.467 33.6605C90.7267 34.0241 91.0834 34.3066 91.4961 34.4753C91.988 34.6814 92.517 34.7833 93.05 34.7748C93.5991 34.7919 94.1455 34.6897 94.6517 34.4753C95.0608 34.2985 95.4114 34.0087 95.6628 33.6396C95.8996 33.2802 96.0224 32.8572 96.0148 32.4264C96.0248 32.0901 95.9455 31.7572 95.7851 31.4618Z" fill="#333333"/>
<path d="M30.4169 31.8783L30.3962 31.9412C30.3951 31.9501 30.3951 31.9592 30.3962 31.9682C30.4021 31.9382 30.4021 31.9083 30.4169 31.8783Z" fill="#3F4DE1"/>
<path d="M30.4946 31.6326C30.4875 31.664 30.4786 31.695 30.468 31.7254L30.4857 31.6535L30.4946 31.6326Z" fill="#3F4DE1"/>
<path d="M30.6199 30.8478C30.6244 30.9096 30.6244 30.9717 30.6199 31.0335C30.6199 31.0724 30.6199 31.1084 30.6051 31.1473C30.6139 31.0938 30.6198 31.0398 30.6228 30.9856C30.6248 30.9396 30.6238 30.8936 30.6199 30.8478Z" fill="#3F4DE1"/>
<path d="M30.6261 30.6591V30.719C30.6261 30.7549 30.6261 30.7879 30.6261 30.8238C30.6275 30.8317 30.6275 30.8399 30.6261 30.8478C30.6231 30.7849 30.6261 30.722 30.6261 30.6591Z" fill="#3F4DE1"/>
<path d="M20.9742 8.37243C20.9742 8.59488 20.8862 8.80822 20.7296 8.96552C20.573 9.12281 20.3606 9.21118 20.1391 9.21118H10.869C10.6475 9.21118 10.435 9.12281 10.2784 8.96552C10.1218 8.80822 10.0338 8.59488 10.0338 8.37243C10.0338 8.14998 10.1218 7.93665 10.2784 7.77935C10.435 7.62206 10.6475 7.53369 10.869 7.53369H20.1391C20.3606 7.53369 20.573 7.62206 20.7296 7.77935C20.8862 7.93665 20.9742 8.14998 20.9742 8.37243Z" fill="#3F4DE1"/>
<path d="M26.9005 20.5852C26.9005 20.8076 26.8125 21.021 26.6559 21.1783C26.4993 21.3355 26.2869 21.4239 26.0654 21.4239H10.8687C10.7546 21.4308 10.6404 21.4141 10.5329 21.375C10.4255 21.3358 10.3272 21.2751 10.244 21.1964C10.1608 21.1177 10.0946 21.0227 10.0493 20.9174C10.004 20.812 9.98059 20.6984 9.98059 20.5837C9.98059 20.4689 10.004 20.3554 10.0493 20.25C10.0946 20.1446 10.1608 20.0497 10.244 19.971C10.3272 19.8923 10.4255 19.8315 10.5329 19.7924C10.6404 19.7533 10.7546 19.7366 10.8687 19.7434H26.0654C26.1753 19.7434 26.2841 19.7652 26.3856 19.8076C26.4872 19.8499 26.5794 19.912 26.657 19.9902C26.7346 20.0684 26.796 20.1612 26.8378 20.2633C26.8796 20.3654 26.9009 20.4748 26.9005 20.5852Z" fill="#3F4DE1"/>
<path d="M26.9005 14.4773C26.9009 14.5877 26.8796 14.6971 26.8378 14.7992C26.796 14.9013 26.7346 14.9941 26.657 15.0723C26.5794 15.1505 26.4872 15.2126 26.3856 15.2549C26.2841 15.2973 26.1753 15.3191 26.0654 15.3191H10.8687C10.7546 15.3259 10.6404 15.3092 10.5329 15.2701C10.4255 15.231 10.3272 15.1702 10.244 15.0915C10.1608 15.0128 10.0946 14.9179 10.0493 14.8125C10.004 14.7071 9.98059 14.5936 9.98059 14.4788C9.98059 14.3641 10.004 14.2505 10.0493 14.1451C10.0946 14.0398 10.1608 13.9448 10.244 13.8661C10.3272 13.7874 10.4255 13.7267 10.5329 13.6875C10.6404 13.6484 10.7546 13.6317 10.8687 13.6386H26.0654C26.2869 13.6386 26.4993 13.7269 26.6559 13.8842C26.8125 14.0415 26.9005 14.2549 26.9005 14.4773Z" fill="#3F4DE1"/>
<path d="M35.3088 0.0899038C35.1288 0.0657084 34.9475 0.0537008 34.7659 0.0539592H9.66979C8.6169 0.0539592 7.60713 0.474018 6.86263 1.22173C6.11812 1.96944 5.69986 2.98355 5.69986 4.04098V25.9262H0V30.4883C0 31.9501 0.578205 33.352 1.60742 34.3857C2.63664 35.4193 4.03256 36.0001 5.4881 36.0001H26.9633H27.2377L27.4494 35.9851C27.5538 35.9851 27.6582 35.9641 27.7477 35.9461C27.9826 35.9184 28.2149 35.8724 28.4427 35.8083L28.5739 35.7694C29.6383 35.4675 30.5753 34.8244 31.242 33.938C31.9086 33.0516 32.2684 31.9706 32.2664 30.8598V17.7604H38.879V4.22071C38.8814 3.21513 38.5211 2.24269 37.8648 1.48329C37.2084 0.723886 36.3004 0.228902 35.3088 0.0899038ZM5.69986 34.3226H5.4881C4.47631 34.321 3.50646 33.9164 2.7913 33.1976C2.07613 32.4788 1.67406 31.5045 1.67327 30.4883V27.6036H5.69986V34.3226ZM7.37314 34.2836V27.6036H21.6571V30.6591C21.6558 32.0032 22.1609 33.298 23.0709 34.2836H7.37314ZM30.6379 30.719C30.6379 30.7549 30.6379 30.7879 30.6379 30.8238C30.6394 30.8317 30.6394 30.8399 30.6379 30.8478C30.6425 30.9096 30.6425 30.9717 30.6379 31.0335C30.6379 31.0724 30.6379 31.1084 30.623 31.1473C30.6081 31.2552 30.5902 31.36 30.5663 31.4649C30.5663 31.5008 30.5514 31.5367 30.5395 31.5727C30.5276 31.6086 30.5395 31.6116 30.5246 31.6326C30.5174 31.664 30.5084 31.6951 30.4977 31.7255L30.4709 31.8093C30.4677 31.8239 30.4627 31.838 30.456 31.8513V31.8782L30.4351 31.9411C30.434 31.9501 30.434 31.9591 30.4351 31.9681C30.4283 31.9803 30.4233 31.9934 30.4202 32.007C30.4114 32.0232 30.4044 32.0403 30.3993 32.058L30.3754 32.1179L30.3486 32.1748C30.3432 32.1938 30.3351 32.2119 30.3247 32.2287V32.2467V32.2646C30.0609 32.8504 29.6394 33.3504 29.1078 33.7085L28.9288 33.8253L28.8841 33.8493C28.8506 33.8705 28.8157 33.8895 28.7797 33.9062C28.7242 33.9393 28.6664 33.9683 28.6067 33.9931L28.4486 34.062L28.3144 34.1129L28.2756 34.1279L28.0609 34.1938C27.8513 34.2517 27.6365 34.2888 27.4196 34.3046H27.2347H27.0468H26.8589H26.7336H26.6382H26.5159H26.492L26.3041 34.2686C26.2256 34.2539 26.1479 34.2349 26.0715 34.2117C26.0119 34.1969 25.9531 34.1789 25.8955 34.1578L25.6986 34.0859L25.5912 34.041C25.3713 33.9455 25.1615 33.8281 24.9649 33.6905L24.7829 33.5527C24.7226 33.507 24.6649 33.458 24.6099 33.4059H24.595C24.5443 33.358 24.4936 33.3101 24.4459 33.2592C24.3911 33.2062 24.3393 33.1502 24.2908 33.0914C24.2431 33.0375 24.1954 32.9776 24.1536 32.9207C24.1065 32.8633 24.0627 32.8033 24.0224 32.7409C23.9955 32.702 23.9717 32.6631 23.9478 32.6241C23.9239 32.5852 23.9001 32.5462 23.8792 32.5073C23.8285 32.4204 23.7838 32.3335 23.742 32.2437C23.7086 32.1764 23.6787 32.1074 23.6525 32.037C23.6257 31.9681 23.6018 31.8992 23.5779 31.8273C23.5541 31.7554 23.5332 31.6835 23.5153 31.6086C23.4663 31.4209 23.4324 31.2296 23.4139 31.0365C23.4139 30.9227 23.4139 30.8088 23.4139 30.695V27.6396H30.7095L30.6379 30.719ZM30.7155 3.41492C30.6638 3.67836 30.6379 3.94623 30.6379 4.21472V25.9262H7.37314V4.04098C7.37314 3.42925 7.61511 2.84257 8.04582 2.41001C8.47652 1.97745 9.06068 1.73444 9.66979 1.73444H31.4432C31.0732 2.23151 30.8194 2.80587 30.7006 3.41492H30.7155ZM37.2475 16.0799H32.2963V4.07393C32.3249 3.58173 32.4987 3.10922 32.7956 2.71659C33.0926 2.32395 33.4991 2.02898 33.9636 1.86924C34.2207 1.77991 34.4909 1.73436 34.7629 1.73444C35.4179 1.73444 36.0461 1.99575 36.5092 2.4609C36.9724 2.92604 37.2326 3.55691 37.2326 4.21472L37.2475 16.0799Z" fill="#3F4DE1"/>
<path d="M30.4169 31.8783L30.3962 31.9412C30.3951 31.9501 30.3951 31.9592 30.3962 31.9682C30.4021 31.9382 30.4021 31.9083 30.4169 31.8783Z" fill="#3F4DE1"/>
<path d="M30.4946 31.6326C30.4875 31.664 30.4786 31.695 30.468 31.7254L30.4857 31.6535L30.4946 31.6326Z" fill="#3F4DE1"/>
<path d="M30.6199 30.8478C30.6244 30.9096 30.6244 30.9717 30.6199 31.0335C30.6199 31.0724 30.6199 31.1084 30.6051 31.1473C30.6139 31.0938 30.6198 31.0398 30.6228 30.9856C30.6248 30.9396 30.6238 30.8936 30.6199 30.8478Z" fill="#3F4DE1"/>
<path d="M30.6261 30.6591V30.719C30.6261 30.7549 30.6261 30.7879 30.6261 30.8238C30.6275 30.8317 30.6275 30.8399 30.6261 30.8478C30.6231 30.7849 30.6261 30.722 30.6261 30.6591Z" fill="#3F4DE1"/>
<path d="M30.4946 31.6326C30.4875 31.664 30.4786 31.695 30.468 31.7254L30.4857 31.6535L30.4946 31.6326Z" fill="#3F4DE1"/>
<path d="M30.6199 30.8478C30.6244 30.9096 30.6244 30.9717 30.6199 31.0335C30.6199 31.0724 30.6199 31.1084 30.6051 31.1473C30.6139 31.0938 30.6198 31.0398 30.6228 30.9856C30.6248 30.9396 30.6238 30.8936 30.6199 30.8478Z" fill="#3F4DE1"/>
<path d="M20.9742 8.37243C20.9742 8.59488 20.8862 8.80822 20.7296 8.96552C20.573 9.12281 20.3606 9.21118 20.1391 9.21118H10.869C10.6475 9.21118 10.435 9.12281 10.2784 8.96552C10.1218 8.80822 10.0338 8.59488 10.0338 8.37243C10.0338 8.14998 10.1218 7.93665 10.2784 7.77935C10.435 7.62206 10.6475 7.53369 10.869 7.53369H20.1391C20.3606 7.53369 20.573 7.62206 20.7296 7.77935C20.8862 7.93665 20.9742 8.14998 20.9742 8.37243Z" fill="#3F4DE1"/>
<path d="M26.9005 14.4773C26.9009 14.5877 26.8796 14.6971 26.8378 14.7992C26.796 14.9013 26.7346 14.9941 26.657 15.0723C26.5794 15.1505 26.4872 15.2126 26.3856 15.2549C26.2841 15.2973 26.1753 15.3191 26.0654 15.3191H10.8687C10.7546 15.3259 10.6404 15.3092 10.5329 15.2701C10.4255 15.231 10.3272 15.1702 10.244 15.0915C10.1608 15.0128 10.0946 14.9179 10.0493 14.8125C10.004 14.7071 9.98059 14.5936 9.98059 14.4788C9.98059 14.3641 10.004 14.2505 10.0493 14.1451C10.0946 14.0398 10.1608 13.9448 10.244 13.8661C10.3272 13.7874 10.4255 13.7267 10.5329 13.6875C10.6404 13.6484 10.7546 13.6317 10.8687 13.6386H26.0654C26.2869 13.6386 26.4993 13.7269 26.6559 13.8842C26.8125 14.0415 26.9005 14.2549 26.9005 14.4773Z" fill="#3F4DE1"/>
<path d="M26.9005 20.5852C26.9005 20.8076 26.8125 21.021 26.6559 21.1783C26.4993 21.3355 26.2869 21.4239 26.0654 21.4239H10.8687C10.7546 21.4308 10.6404 21.4141 10.5329 21.375C10.4255 21.3358 10.3272 21.2751 10.244 21.1964C10.1608 21.1177 10.0946 21.0227 10.0493 20.9174C10.004 20.812 9.98059 20.6984 9.98059 20.5837C9.98059 20.4689 10.004 20.3554 10.0493 20.25C10.0946 20.1446 10.1608 20.0497 10.244 19.971C10.3272 19.8923 10.4255 19.8315 10.5329 19.7924C10.6404 19.7533 10.7546 19.7366 10.8687 19.7434H26.0654C26.1753 19.7434 26.2841 19.7652 26.3856 19.8076C26.4872 19.8499 26.5794 19.912 26.657 19.9902C26.7346 20.0684 26.796 20.1612 26.8378 20.2633C26.8796 20.3654 26.9009 20.4748 26.9005 20.5852Z" fill="#3F4DE1"/>
<path d="M30.6111 30.9856C30.6111 30.9856 30.6111 31.0186 30.6111 31.0335C30.6111 31.0485 30.6111 31.1084 30.5963 31.1474C30.6041 31.0938 30.609 31.0397 30.6111 30.9856Z" fill="#3F4DE1"/>
</g>
<defs>
<clipPath id="clip0_1243_43039">
<rect width="96" height="36" fill="white"/>
</clipPath>
</defs>
</svg>
