<svg width="130" height="77" viewBox="0 0 130 77" fill="none" xmlns="http://www.w3.org/2000/svg">
<path d="M19.2481 15.0576V14.8576H19.0481H9.35522H9.15522V15.0576V17.1701V17.3701H9.35522H19.0481H19.2481V17.1701V15.0576Z" fill="white" stroke="white" stroke-width="0.4"/>
<path d="M45.4964 30.97V30.77H45.2964H26.9041H26.7041V30.97V33.0825V33.2825H26.9041H45.2964H45.4964V33.0825V30.97Z" fill="white" stroke="white" stroke-width="0.4"/>
<path d="M45.501 25.4834V25.2834H45.301H33.8779H33.6779V25.4834V27.5959V27.7959H33.8779H45.301H45.501V27.5959V25.4834Z" fill="white" stroke="white" stroke-width="0.4"/>
<path d="M45.5014 42.448V42.248H45.3014H37.7797H37.5797V42.448V44.5605V44.7605H37.7797H45.3014H45.5014V44.5605V42.448Z" fill="white" stroke="white" stroke-width="0.4"/>
<path d="M45.5015 46.1768V45.9768H45.3015H37.7798H37.5798V46.1768V48.2893V48.4893H37.7798H45.3015H45.5015V48.2893V46.1768Z" fill="white" stroke="white" stroke-width="0.4"/>
<path d="M2.26318 48.1287L2.37441 48.1351L2.43838 48.0439L28.3329 11.1089L28.5536 10.7941H28.1691H10.6409V2.81218H35.7344H35.9344V2.61218V1.63867V1.43867H35.7344H9.47157H9.27157V1.63867V11.9676V12.1676H9.47157H25.9127L0.836532 47.7408L0.629067 48.0351L0.988562 48.0557L2.26318 48.1287Z" fill="white" stroke="white" stroke-width="0.4"/>
<path d="M35.6518 48.3388H35.8518V48.1388V37.805V37.605H35.6518H19.2045L44.2338 1.89996L44.4691 1.5643L44.0597 1.58542L42.8336 1.6487L42.7361 1.65373L42.6801 1.73363L16.7904 38.6637L16.5697 38.9785H16.9542H34.4825V46.9653H9.38892H9.18892V47.1653V48.1388V48.3388H9.38892H35.6518Z" fill="white" stroke="white" stroke-width="0.4"/>
<path d="M52.4207 0.8H52.2207L52.2207 1.00006L52.2353 47.9329L52.2353 48.1329H52.4353H85.391H85.591V47.9329V46.5894V46.3894H85.391H54.0892V25.2019H82.1924H82.3924V25.0019V23.6633V23.4633H82.1924H54.0892V2.53858H85.0615H85.2615V2.33858V1V0.8H85.0615H52.4207Z" fill="white" stroke="white" stroke-width="0.4"/>
<path d="M96.5477 0.8H96.3477L96.3477 1.00006L96.3623 47.9329L96.3623 48.1329H96.5623H129.518H129.718V47.9329V46.5894V46.3894H129.518H98.2162V25.2019H126.319H126.519V25.0019V23.6633V23.4633H126.319H98.2162V2.53858H129.188H129.388V2.33858V1V0.8H129.188H96.5477Z" fill="white" stroke="white" stroke-width="0.4"/>
<path d="M1.10205 55.9875H0.902051V56.1875V75.6577V75.8577H1.10205H1.70786H1.90786V75.6577V56.1875V55.9875H1.70786H1.10205Z" fill="white" stroke="white" stroke-width="0.4"/>
<path d="M7.65894 55.9875H7.45869L7.45894 56.1877L7.48319 75.6579L7.48344 75.8577H7.68319H8.26474H8.46474V75.6577V57.7763L22.827 75.7824L22.8871 75.8577H22.9834H23.5116H23.7116V75.6577V56.1875V55.9875H23.5116H22.9301H22.7301V56.1875V74.069L8.36292 56.0628L8.30287 55.9875H8.20659H7.65894Z" fill="white" stroke="white" stroke-width="0.4"/>
<path d="M27.384 55.9875H27.0748L27.2016 56.2695L36.0125 75.8614L36.0655 75.9794H36.1949H36.6795H36.8089L36.862 75.8613L45.6631 56.2695L45.7898 55.9875H45.4807H44.8458H44.7162L44.6632 56.1058L36.4615 74.4283L28.2596 56.1058L28.2067 55.9875H28.0771H27.384Z" fill="white" stroke="white" stroke-width="0.4"/>
<path d="M47.1901 65.8904V65.9439C47.1901 71.3462 51.0227 76.1759 57.02 76.1759C63.0173 76.1759 66.8499 71.3462 66.8499 65.9439V65.8904C66.8499 60.4882 63.0125 55.6535 57.02 55.6535C51.0275 55.6535 47.1901 60.4882 47.1901 65.8904ZM65.8441 65.9147V65.9731C65.8441 70.8854 62.3148 75.2211 57.0491 75.2211C51.7838 75.2211 48.2008 70.7982 48.2008 65.9147V65.8612C48.2008 60.9489 51.7302 56.6133 56.9958 56.6133C62.2612 56.6133 65.8441 61.0314 65.8441 65.9147Z" fill="white" stroke="white" stroke-width="0.4"/>
<path d="M71.7388 55.9875H71.5388V56.1875V75.6577V75.8577H71.7388H72.3494H72.5494V75.6577V56.1875V55.9875H72.3494H71.7388Z" fill="white" stroke="white" stroke-width="0.4"/>
<path d="M94.4605 59.0798L94.6026 58.9354L86.9028 76.0003L86.9016 76.2003C86.9017 76.2003 86.9019 76.2003 86.902 76.2003C88.3449 76.2089 89.7736 75.9134 91.0956 75.3328C92.4178 74.7522 93.6039 73.8995 94.5773 72.8298L94.7091 72.685L94.5671 72.5501L94.126 72.1315L93.9767 71.9898L93.8394 72.1432C92.9675 73.1164 91.9023 73.8952 90.7125 74.4295C89.5229 74.9637 88.235 75.2417 86.9319 75.2454C81.9646 75.2454 78.2484 71.0145 78.2484 65.9683V65.9147C78.2484 60.9108 81.9126 56.6376 86.9319 56.6376C90.3225 56.6376 92.2381 58.0241 93.7669 59.502L93.9094 59.6397L94.0485 59.4984L94.4605 59.0798Z" fill="white" stroke="white" stroke-width="0.4"/>
<path d="M98.384 55.9875H98.1838L98.184 56.1877L98.2083 75.6433L98.2085 75.8431H98.4083H112.08H112.28V75.6431V75.0882V74.8882H112.08H99.1947V66.3368H110.728H110.928V66.1368V65.5819V65.3819H110.728H99.1947V56.9424H111.92H112.12V56.7424V56.1875V55.9875H111.92H98.384Z" fill="white" stroke="white" stroke-width="0.4"/>
<path d="M115.784 72.3927C116.734 73.3342 117.857 74.0809 119.091 74.5908C120.339 75.1061 121.675 75.3695 123.024 75.3658L115.784 72.3927ZM115.784 72.3927C115.774 72.3827 115.764 72.3726 115.754 72.3625L115.613 72.504C115.613 72.5041 115.613 72.5042 115.613 72.5043L115.454 72.6637C115.454 72.6633 115.453 72.6629 115.453 72.6625L115.313 72.8055L115.455 72.9466L115.457 72.944C117.488 74.8587 120.17 75.9281 122.961 75.9305C127.056 75.9305 129.571 73.6525 129.571 70.7611V70.7076C129.571 68.0645 127.914 66.5361 122.873 65.509L115.784 72.3927ZM115.171 72.6644L115.029 72.8074L115.173 72.9485C117.258 74.9864 120.051 76.128 122.961 76.1305H122.961C125.044 76.1305 126.745 75.5508 127.928 74.585C129.114 73.6174 129.771 72.269 129.771 70.7611V70.7076C129.771 69.335 129.336 68.2309 128.238 67.3465C127.155 66.4746 125.441 65.8282 122.913 65.3131C120.538 64.8272 119.013 64.2779 118.083 63.5769C117.622 63.2294 117.309 62.8463 117.111 62.4155C116.911 61.9836 116.822 61.4929 116.822 60.9238V60.8362C116.822 58.7134 118.947 56.6557 122.267 56.6554C124.486 56.672 126.639 57.418 128.397 58.7796L128.553 58.9004L128.676 58.7461L129.064 58.2593L129.191 58.1001L129.029 57.9761C127.104 56.4975 124.745 55.7007 122.321 55.7102C118.608 55.7104 115.821 58.0107 115.821 60.8849V60.9384C115.821 62.3564 116.301 63.4532 117.41 64.3116C118.503 65.1575 120.195 65.7621 122.596 66.2501C125.034 66.7482 126.58 67.3108 127.516 68.0251C127.98 68.3792 128.292 68.7691 128.489 69.2071C128.687 69.6463 128.775 70.1448 128.775 70.7222V70.7806C128.775 73.2383 126.584 75.1658 123.024 75.1658L123.023 75.1658C121.701 75.1694 120.391 74.9112 119.168 74.4059C117.945 73.9007 116.833 73.1583 115.895 72.2211L115.754 72.0794L115.612 72.2214L115.171 72.6644Z" fill="white" stroke="white" stroke-width="0.4"/>
</svg>
