<svg width="40" height="40" viewBox="0 0 40 40" fill="none" xmlns="http://www.w3.org/2000/svg">
<path d="M20 40C31.0457 40 40 31.0457 40 20C40 8.9543 31.0457 0 20 0C8.9543 0 0 8.9543 0 20C0 31.0457 8.9543 40 20 40Z" fill="white" fill-opacity="0.2"/>
<path d="M17.8129 27L17.7915 20.4375H15V17.625H17.7915V15.75C17.7915 13.2195 19.3469 12 21.5874 12C22.6607 12 23.5831 12.0805 23.8519 12.1165V14.761L22.298 14.7617C21.0794 14.7617 20.8435 15.3451 20.8435 16.2012V17.625H24.3051L23.3746 20.4375H20.8435V27H17.8129Z" fill="white"/>
</svg>
