<svg width="40" height="40" viewBox="0 0 40 40" fill="none" xmlns="http://www.w3.org/2000/svg">
<path d="M20 40C31.0457 40 40 31.0457 40 20C40 8.9543 31.0457 0 20 0C8.9543 0 0 8.9543 0 20C0 31.0457 8.9543 40 20 40Z" fill="white" fill-opacity="0.2"/>
<path d="M23.3863 16.5483C23.8834 16.5483 24.2863 16.1453 24.2863 15.6483C24.2863 15.1512 23.8834 14.7483 23.3863 14.7483C22.8893 14.7483 22.4863 15.1512 22.4863 15.6483C22.4863 16.1453 22.8893 16.5483 23.3863 16.5483Z" fill="white"/>
<path fill-rule="evenodd" clip-rule="evenodd" d="M15.751 19.5C15.751 21.5682 17.4329 23.25 19.501 23.25C21.5691 23.25 23.251 21.5682 23.251 19.5C23.251 17.4319 21.5691 15.75 19.501 15.75C17.4329 15.75 15.751 17.4319 15.751 19.5ZM17.6258 19.5C17.6258 18.466 18.4668 17.625 19.5008 17.625C20.5349 17.625 21.3758 18.466 21.3758 19.5C21.3758 20.5341 20.5349 21.375 19.5008 21.375C18.4668 21.375 17.6258 20.5341 17.6258 19.5Z" fill="white"/>
<path fill-rule="evenodd" clip-rule="evenodd" d="M15.75 27H23.25C25.1775 27 27 25.1775 27 23.25V15.75C27 13.8225 25.1775 12 23.25 12H15.75C13.8225 12 12 13.8225 12 15.75V23.25C12 25.1775 13.8225 27 15.75 27ZM13.8749 15.75C13.8749 14.8735 14.8733 13.875 15.7499 13.875H23.2499C24.1264 13.875 25.1249 14.8735 25.1249 15.75V23.25C25.1249 24.1266 24.1264 25.125 23.2499 25.125H15.7499C14.8564 25.125 13.8749 24.1435 13.8749 23.25V15.75Z" fill="white"/>
</svg>
