<svg width="38" height="38" viewBox="0 0 38 38" fill="none" xmlns="http://www.w3.org/2000/svg">
<path d="M19 38C29.4934 38 38 29.4934 38 19C38 8.50659 29.4934 0 19 0C8.50659 0 0 8.50659 0 19C0 29.4934 8.50659 38 19 38Z" fill="white" fill-opacity="0.2"/>
<path d="M13.75 15.5C14.7165 15.5 15.5 14.7165 15.5 13.75C15.5 12.7835 14.7165 12 13.75 12C12.7835 12 12 12.7835 12 13.75C12 14.7165 12.7835 15.5 13.75 15.5Z" fill="white"/>
<path d="M15.2083 16.6667H12.2917C12.1307 16.6667 12 16.7974 12 16.9584V25.7083C12 25.8693 12.1307 26 12.2917 26H15.2083C15.3693 26 15.5 25.8693 15.5 25.7083V16.9584C15.5 16.7974 15.3693 16.6667 15.2083 16.6667Z" fill="white"/>
<path d="M23.8981 16.2647C22.6515 15.8377 21.0922 16.2128 20.1572 16.8853C20.1251 16.7599 20.0107 16.6666 19.8748 16.6666H16.9582C16.7972 16.6666 16.6665 16.7973 16.6665 16.9583V25.7082C16.6665 25.8692 16.7972 25.9999 16.9582 25.9999H19.8748C20.0358 25.9999 20.1665 25.8692 20.1665 25.7082V19.4199C20.6378 19.0139 21.2451 18.8844 21.7421 19.0956C22.2239 19.2992 22.4998 19.7962 22.4998 20.4582V25.7082C22.4998 25.8692 22.6305 25.9999 22.7915 25.9999H25.7081C25.8691 25.9999 25.9998 25.8692 25.9998 25.7082V19.8708C25.9666 17.4739 24.839 16.5867 23.8981 16.2647Z" fill="white"/>
</svg>
