<svg width="96" height="36" viewBox="0 0 96 36" fill="none" xmlns="http://www.w3.org/2000/svg">
<g clip-path="url(#clip0_2403_14909)">
<path d="M49.1169 18.0003L59.9499 2.38469V-0.0117188H44.2969V3.21445H55.1985L44.3565 18.83V21.2264H60.0096V18.0003H49.1169Z" fill="white"/>
<path d="M67.8844 18V12.2157H77.0949V8.98952H67.8844V3.22616H77.8077V0H64.0547V21.2351H77.8912V18H67.8844Z" fill="white"/>
<path d="M85.8805 18V12.2157H95.091V8.98952H85.8805V3.22616H95.8009V0H82.0508V21.2351H95.8874V18H85.8805Z" fill="white"/>
<path d="M44.3711 26.5742V34.6142H45.5791V26.5742H44.3711Z" fill="white"/>
<path d="M52.7957 26.5742V32.4784H52.7211L48.6497 26.5742H47.5312V34.6142H48.7392V28.719H48.8138L52.8821 34.6142H53.9917V26.5742H52.7957Z" fill="white"/>
<path d="M61.1879 26.5742L58.9599 33.1224H58.8704L56.6483 26.5742H55.3359L58.2172 34.6142H59.6131L62.4914 26.5742H61.1879Z" fill="white"/>
<path d="M69.9274 28.382C69.641 27.7955 69.1953 27.3023 68.6419 26.9591C68.0779 26.6352 67.4394 26.4648 66.7896 26.4648C66.1399 26.4648 65.5014 26.6352 64.9374 26.9591C64.384 27.3023 63.9383 27.7955 63.6519 28.382C63.3431 29.0778 63.1836 29.831 63.1836 30.5927C63.1836 31.3544 63.3431 32.1076 63.6519 32.8034C63.9375 33.3904 64.3833 33.8839 64.9374 34.2262C65.5009 34.5519 66.1396 34.7233 66.7896 34.7233C67.4397 34.7233 68.0784 34.5519 68.6419 34.2262C69.1959 33.8851 69.6417 33.3926 69.9274 32.8064C70.2362 32.1101 70.3958 31.3564 70.3958 30.5942C70.3958 29.832 70.2362 29.0783 69.9274 28.382ZM68.8805 32.2492C68.6985 32.6659 68.4001 33.0207 68.0215 33.2707C67.6499 33.4979 67.2232 33.6182 66.7881 33.6182C66.3531 33.6182 65.9264 33.4979 65.5548 33.2707C65.1762 33.0207 64.8778 32.6659 64.6958 32.2492C64.2743 31.1865 64.2743 30.0019 64.6958 28.9392C64.8778 28.5225 65.1762 28.1677 65.5548 27.9177C65.9264 27.6904 66.3531 27.5702 66.7881 27.5702C67.2232 27.5702 67.6499 27.6904 68.0215 27.9177C68.4001 28.1677 68.6985 28.5225 68.8805 28.9392C69.302 30.0019 69.302 31.1865 68.8805 32.2492Z" fill="white"/>
<path d="M72.0859 26.5742V34.6142H73.279V26.5742H72.0859Z" fill="white"/>
<path d="M80.4055 32.7053C80.2786 32.8984 80.1191 33.0677 79.9342 33.2055C79.7453 33.3392 79.5357 33.4404 79.3138 33.5051C79.0796 33.5755 78.8364 33.6108 78.592 33.6099C78.1567 33.6151 77.7291 33.4945 77.3602 33.2625C76.9801 33.0133 76.6806 32.6584 76.4982 32.241C76.0827 31.1823 76.0827 30.0046 76.4982 28.9459C76.6825 28.529 76.9816 28.1736 77.3602 27.9215C77.729 27.6864 78.1582 27.5646 78.595 27.571C78.8416 27.5696 79.087 27.606 79.3228 27.6788C79.5442 27.7423 79.753 27.8437 79.9402 27.9784C80.1261 28.1187 80.2857 28.2911 80.4114 28.4876C80.5427 28.6976 80.6309 28.9319 80.6709 29.1766H81.8908C81.8338 28.7719 81.7013 28.3816 81.5001 28.0263C81.3148 27.6954 81.0665 27.4043 80.7693 27.1696C80.4724 26.9341 80.1361 26.7535 79.7761 26.6364C79.3908 26.5115 78.9879 26.4498 78.5831 26.4537C77.9328 26.4423 77.2924 26.6135 76.7338 26.9479C76.1812 27.2912 75.7366 27.7845 75.4513 28.3708C75.1434 29.0668 74.9844 29.8199 74.9844 30.5815C74.9844 31.343 75.1434 32.0962 75.4513 32.7922C75.7355 33.3782 76.1791 33.8715 76.7308 34.215C77.2907 34.5519 77.9335 34.7242 78.586 34.7123C78.9996 34.7158 79.4109 34.65 79.803 34.5176C80.1652 34.3923 80.5024 34.2037 80.7992 33.9604C81.0883 33.7216 81.331 33.4311 81.515 33.1037C81.7028 32.7662 81.8301 32.3981 81.8908 32.0163H80.6709C80.6292 32.2615 80.5389 32.4958 80.4055 32.7053Z" fill="white"/>
<path d="M84.7392 33.5756V31.1133H88.2886V30.0739H84.7392V27.6236H88.566V26.5781H83.5312V34.6181H88.6018V33.5756H84.7392Z" fill="white"/>
<path d="M95.7844 31.4627C95.6472 31.2083 95.4581 30.9858 95.2296 30.8097C94.9998 30.6361 94.7481 30.4941 94.481 30.3873C94.2256 30.2843 93.9635 30.1993 93.6965 30.1327L92.9151 29.929C92.757 29.887 92.5959 29.8391 92.4259 29.7762C92.2596 29.7176 92.1005 29.6402 91.9517 29.5455C91.8088 29.4569 91.6867 29.3384 91.5937 29.1981C91.5022 29.0499 91.4556 28.8781 91.4595 28.7038C91.4595 28.4881 91.5285 28.2781 91.6564 28.1047C91.8013 27.9156 91.9939 27.7688 92.2141 27.6793C92.4854 27.5716 92.7755 27.5197 93.0672 27.5266C93.4683 27.509 93.8654 27.6134 94.2066 27.8261C94.3528 27.9214 94.4756 28.0489 94.5655 28.1989C94.6554 28.3489 94.7101 28.5174 94.7255 28.6918H95.8888C95.8861 28.2793 95.7547 27.8781 95.513 27.5445C95.26 27.2003 94.9217 26.9287 94.5317 26.7567C94.0793 26.5548 93.589 26.4527 93.094 26.4572C92.5961 26.4528 92.103 26.5549 91.6474 26.7567C91.2436 26.9305 90.8927 27.2085 90.6303 27.5625C90.379 27.9159 90.2482 28.3415 90.2575 28.7757C90.2467 29.0284 90.2913 29.2804 90.3882 29.5139C90.4851 29.7473 90.6319 29.9565 90.8182 30.1267C91.2568 30.5023 91.7783 30.7673 92.3394 30.8995L93.2849 31.1601C93.5492 31.2266 93.8075 31.3148 94.0574 31.4237C94.2634 31.5072 94.4487 31.635 94.6003 31.7982C94.7418 31.9644 94.8144 32.1788 94.8031 32.3973C94.8074 32.6452 94.7251 32.8869 94.5704 33.0803C94.4043 33.2851 94.1872 33.4422 93.9411 33.5356C93.6505 33.6499 93.3404 33.7059 93.0284 33.7003C92.7371 33.7031 92.4476 33.6554 92.1724 33.5595C91.9262 33.4766 91.7067 33.3286 91.5371 33.1312C91.3601 32.9308 91.2551 32.6766 91.2388 32.4092H90.0547C90.0698 32.8576 90.2127 33.2921 90.4663 33.6614C90.7259 34.025 91.0827 34.3074 91.4953 34.4762C91.9873 34.6822 92.5163 34.7842 93.0493 34.7757C93.5984 34.7928 94.1447 34.6906 94.651 34.4762C95.06 34.2994 95.4107 34.0096 95.6621 33.6404C95.8989 33.2811 96.0216 32.8581 96.014 32.4272C96.024 32.0909 95.9448 31.758 95.7844 31.4627Z" fill="white"/>
<path d="M30.416 31.8789L30.3954 31.9418C30.3943 31.9508 30.3943 31.9598 30.3954 31.9688C30.4013 31.9388 30.4013 31.9089 30.416 31.8789Z" fill="#3F4DE1"/>
<path d="M30.4953 31.6328C30.4882 31.6643 30.4794 31.6953 30.4688 31.7257L30.4865 31.6538L30.4953 31.6328Z" fill="#3F4DE1"/>
<path d="M30.6202 30.8477C30.6247 30.9095 30.6247 30.9716 30.6202 31.0334C30.6202 31.0723 30.6202 31.1083 30.6055 31.1472C30.6143 31.0937 30.6202 31.0396 30.6232 30.9854C30.6251 30.9395 30.6242 30.8935 30.6202 30.8477Z" fill="#3F4DE1"/>
<path d="M30.6263 30.6602V30.7201C30.6263 30.756 30.6263 30.789 30.6263 30.8249C30.6278 30.8328 30.6278 30.841 30.6263 30.8489C30.6234 30.786 30.6263 30.7231 30.6263 30.6602Z" fill="#3F4DE1"/>
<path d="M20.9756 8.37389C20.9756 8.59634 20.8876 8.80969 20.731 8.96698C20.5743 9.12428 20.3619 9.21264 20.1404 9.21264H10.8703C10.6488 9.21264 10.4364 9.12428 10.2798 8.96698C10.1231 8.80969 10.0352 8.59634 10.0352 8.37389C10.0352 8.15145 10.1231 7.93811 10.2798 7.78082C10.4364 7.62352 10.6488 7.53516 10.8703 7.53516H20.1404C20.3619 7.53516 20.5743 7.62352 20.731 7.78082C20.8876 7.93811 20.9756 8.15145 20.9756 8.37389Z" fill="#3F4DE1"/>
<path d="M26.9004 20.5854C26.9004 20.8079 26.8124 21.0212 26.6558 21.1785C26.4992 21.3358 26.2867 21.4242 26.0652 21.4242H10.8686C10.7545 21.431 10.6402 21.4143 10.5328 21.3752C10.4254 21.3361 10.3271 21.2753 10.2439 21.1966C10.1607 21.1179 10.0944 21.023 10.0491 20.9176C10.0038 20.8122 9.98047 20.6987 9.98047 20.5839C9.98047 20.4692 10.0038 20.3556 10.0491 20.2502C10.0944 20.1449 10.1607 20.0499 10.2439 19.9712C10.3271 19.8925 10.4254 19.8318 10.5328 19.7926C10.6402 19.7535 10.7545 19.7368 10.8686 19.7437H26.0652C26.1752 19.7437 26.284 19.7655 26.3855 19.8078C26.487 19.8502 26.5793 19.9122 26.6568 19.9904C26.7344 20.0686 26.7959 20.1614 26.8377 20.2635C26.8795 20.3656 26.9008 20.475 26.9004 20.5854Z" fill="#3F4DE1"/>
<path d="M26.9004 14.477C26.9008 14.5874 26.8795 14.6967 26.8377 14.7988C26.7959 14.901 26.7344 14.9938 26.6568 15.072C26.5793 15.1502 26.487 15.2122 26.3855 15.2546C26.284 15.2969 26.1752 15.3187 26.0652 15.3187H10.8686C10.7545 15.3255 10.6402 15.3089 10.5328 15.2697C10.4254 15.2306 10.3271 15.1698 10.2439 15.0911C10.1607 15.0124 10.0944 14.9175 10.0491 14.8121C10.0038 14.7068 9.98047 14.5932 9.98047 14.4785C9.98047 14.3637 10.0038 14.2501 10.0491 14.1448C10.0944 14.0394 10.1607 13.9445 10.2439 13.8658C10.3271 13.7871 10.4254 13.7263 10.5328 13.6872C10.6402 13.648 10.7545 13.6314 10.8686 13.6382H26.0652C26.2867 13.6382 26.4992 13.7266 26.6558 13.8839C26.8124 14.0412 26.9004 14.2545 26.9004 14.477Z" fill="#3F4DE1"/>
<path d="M35.3088 0.0906362C35.1288 0.0664409 34.9475 0.0544332 34.7659 0.0546916H9.66979C8.6169 0.0546916 7.60713 0.474751 6.86263 1.22246C6.11812 1.97017 5.69986 2.98429 5.69986 4.04171V25.9269H0V30.489C0 31.9508 0.578205 33.3528 1.60742 34.3864C2.63664 35.4201 4.03256 36.0008 5.4881 36.0008H26.9633H27.2377L27.4494 35.9858C27.5538 35.9858 27.6582 35.9648 27.7477 35.9468C27.9826 35.9191 28.2149 35.8731 28.4427 35.8091L28.5739 35.7701C29.6383 35.4682 30.5753 34.8251 31.242 33.9387C31.9086 33.0523 32.2684 31.9713 32.2664 30.8605V17.7611H38.879V4.22144C38.8814 3.21586 38.5211 2.24342 37.8648 1.48402C37.2084 0.724618 36.3004 0.229635 35.3088 0.0906362ZM5.69986 34.3233H5.4881C4.47631 34.3217 3.50646 33.9171 2.7913 33.1983C2.07613 32.4795 1.67406 31.5052 1.67327 30.489V27.6044H5.69986V34.3233ZM7.37314 34.2843V27.6044H21.6571V30.6598C21.6558 32.0039 22.1609 33.2988 23.0709 34.2843H7.37314ZM30.6379 30.7197C30.6379 30.7557 30.6379 30.7886 30.6379 30.8245C30.6394 30.8325 30.6394 30.8406 30.6379 30.8485C30.6425 30.9103 30.6425 30.9724 30.6379 31.0342C30.6379 31.0732 30.6379 31.1091 30.623 31.1481C30.6081 31.2559 30.5902 31.3607 30.5663 31.4656C30.5663 31.5015 30.5514 31.5375 30.5395 31.5734C30.5276 31.6094 30.5395 31.6124 30.5246 31.6333C30.5174 31.6648 30.5084 31.6958 30.4977 31.7262L30.4709 31.8101C30.4677 31.8246 30.4627 31.8387 30.456 31.852V31.879L30.4351 31.9419C30.434 31.9508 30.434 31.9599 30.4351 31.9688C30.4283 31.981 30.4233 31.9942 30.4202 32.0078C30.4114 32.024 30.4044 32.041 30.3993 32.0587L30.3754 32.1186L30.3486 32.1755C30.3432 32.1945 30.3351 32.2127 30.3247 32.2294V32.2474V32.2654C30.0609 32.8511 29.6394 33.3512 29.1078 33.7092L28.9288 33.826L28.8841 33.85C28.8506 33.8713 28.8157 33.8903 28.7797 33.9069C28.7242 33.94 28.6664 33.9691 28.6067 33.9938L28.4486 34.0627L28.3144 34.1136L28.2756 34.1286L28.0609 34.1945C27.8513 34.2525 27.6365 34.2896 27.4196 34.3053H27.2347H27.0468H26.8589H26.7336H26.6382H26.5159H26.492L26.3041 34.2694C26.2256 34.2547 26.1479 34.2357 26.0715 34.2125C26.0119 34.1977 25.9531 34.1797 25.8955 34.1585L25.6986 34.0867L25.5912 34.0417C25.3713 33.9462 25.1615 33.8288 24.9649 33.6912L24.7829 33.5534C24.7226 33.5078 24.6649 33.4588 24.6099 33.4067H24.595C24.5443 33.3587 24.4936 33.3108 24.4459 33.2599C24.3911 33.207 24.3393 33.1509 24.2908 33.0921C24.2431 33.0382 24.1954 32.9783 24.1536 32.9214C24.1065 32.864 24.0627 32.804 24.0224 32.7417C23.9955 32.7027 23.9717 32.6638 23.9478 32.6248C23.9239 32.5859 23.9001 32.547 23.8792 32.508C23.8285 32.4211 23.7838 32.3343 23.742 32.2444C23.7086 32.1771 23.6787 32.1081 23.6525 32.0377C23.6257 31.9688 23.6018 31.8999 23.5779 31.828C23.5541 31.7561 23.5332 31.6842 23.5153 31.6094C23.4663 31.4217 23.4324 31.2304 23.4139 31.0372C23.4139 30.9234 23.4139 30.8096 23.4139 30.6957V27.6403H30.7095L30.6379 30.7197ZM30.7155 3.41565C30.6638 3.67909 30.6379 3.94696 30.6379 4.21546V25.9269H7.37314V4.04171C7.37314 3.42998 7.61511 2.84331 8.04582 2.41075C8.47652 1.97819 9.06068 1.73518 9.66979 1.73518H31.4432C31.0732 2.23224 30.8194 2.8066 30.7006 3.41565H30.7155ZM37.2475 16.0807H32.2963V4.07467C32.3249 3.58246 32.4987 3.10995 32.7956 2.71732C33.0926 2.32469 33.4991 2.02971 33.9636 1.86997C34.2207 1.78064 34.4909 1.73509 34.7629 1.73518C35.4179 1.73518 36.0461 1.99649 36.5092 2.46163C36.9724 2.92677 37.2326 3.55764 37.2326 4.21546L37.2475 16.0807Z" fill="#3F4DE1"/>
<path d="M30.416 31.8789L30.3954 31.9418C30.3943 31.9508 30.3943 31.9598 30.3954 31.9688C30.4013 31.9388 30.4013 31.9089 30.416 31.8789Z" fill="#3F4DE1"/>
<path d="M30.4953 31.6328C30.4882 31.6643 30.4794 31.6953 30.4688 31.7257L30.4865 31.6538L30.4953 31.6328Z" fill="#3F4DE1"/>
<path d="M30.6202 30.8477C30.6247 30.9095 30.6247 30.9716 30.6202 31.0334C30.6202 31.0723 30.6202 31.1083 30.6055 31.1472C30.6143 31.0937 30.6202 31.0396 30.6232 30.9854C30.6251 30.9395 30.6242 30.8935 30.6202 30.8477Z" fill="#3F4DE1"/>
<path d="M30.6263 30.6602V30.7201C30.6263 30.756 30.6263 30.789 30.6263 30.8249C30.6278 30.8328 30.6278 30.841 30.6263 30.8489C30.6234 30.786 30.6263 30.7231 30.6263 30.6602Z" fill="#3F4DE1"/>
<path d="M30.4953 31.6328C30.4882 31.6643 30.4794 31.6953 30.4688 31.7257L30.4865 31.6538L30.4953 31.6328Z" fill="#3F4DE1"/>
<path d="M30.6202 30.8477C30.6247 30.9095 30.6247 30.9716 30.6202 31.0334C30.6202 31.0723 30.6202 31.1083 30.6055 31.1472C30.6143 31.0937 30.6202 31.0396 30.6232 30.9854C30.6251 30.9395 30.6242 30.8935 30.6202 30.8477Z" fill="#3F4DE1"/>
<path d="M20.9756 8.37389C20.9756 8.59634 20.8876 8.80969 20.731 8.96698C20.5743 9.12428 20.3619 9.21264 20.1404 9.21264H10.8703C10.6488 9.21264 10.4364 9.12428 10.2798 8.96698C10.1231 8.80969 10.0352 8.59634 10.0352 8.37389C10.0352 8.15145 10.1231 7.93811 10.2798 7.78082C10.4364 7.62352 10.6488 7.53516 10.8703 7.53516H20.1404C20.3619 7.53516 20.5743 7.62352 20.731 7.78082C20.8876 7.93811 20.9756 8.15145 20.9756 8.37389Z" fill="#3F4DE1"/>
<path d="M26.9004 14.477C26.9008 14.5874 26.8795 14.6967 26.8377 14.7988C26.7959 14.901 26.7344 14.9938 26.6568 15.072C26.5793 15.1502 26.487 15.2122 26.3855 15.2546C26.284 15.2969 26.1752 15.3187 26.0652 15.3187H10.8686C10.7545 15.3255 10.6402 15.3089 10.5328 15.2697C10.4254 15.2306 10.3271 15.1698 10.2439 15.0911C10.1607 15.0124 10.0944 14.9175 10.0491 14.8121C10.0038 14.7068 9.98047 14.5932 9.98047 14.4785C9.98047 14.3637 10.0038 14.2501 10.0491 14.1448C10.0944 14.0394 10.1607 13.9445 10.2439 13.8658C10.3271 13.7871 10.4254 13.7263 10.5328 13.6872C10.6402 13.648 10.7545 13.6314 10.8686 13.6382H26.0652C26.2867 13.6382 26.4992 13.7266 26.6558 13.8839C26.8124 14.0412 26.9004 14.2545 26.9004 14.477Z" fill="#3F4DE1"/>
<path d="M26.9004 20.5854C26.9004 20.8079 26.8124 21.0212 26.6558 21.1785C26.4992 21.3358 26.2867 21.4242 26.0652 21.4242H10.8686C10.7545 21.431 10.6402 21.4143 10.5328 21.3752C10.4254 21.3361 10.3271 21.2753 10.2439 21.1966C10.1607 21.1179 10.0944 21.023 10.0491 20.9176C10.0038 20.8122 9.98047 20.6987 9.98047 20.5839C9.98047 20.4692 10.0038 20.3556 10.0491 20.2502C10.0944 20.1449 10.1607 20.0499 10.2439 19.9712C10.3271 19.8925 10.4254 19.8318 10.5328 19.7926C10.6402 19.7535 10.7545 19.7368 10.8686 19.7437H26.0652C26.1752 19.7437 26.284 19.7655 26.3855 19.8078C26.487 19.8502 26.5793 19.9122 26.6568 19.9904C26.7344 20.0686 26.7959 20.1614 26.8377 20.2635C26.8795 20.3656 26.9008 20.475 26.9004 20.5854Z" fill="#3F4DE1"/>
<path d="M30.6124 30.9844C30.6124 30.9844 30.6124 31.0173 30.6124 31.0323C30.6124 31.0473 30.6124 31.1072 30.5977 31.1461C30.6055 31.0925 30.6104 31.0385 30.6124 30.9844Z" fill="#3F4DE1"/>
</g>
<defs>
<clipPath id="clip0_2403_14909">
<rect width="96" height="36" fill="white"/>
</clipPath>
</defs>
</svg>
