<svg width="40" height="40" viewBox="0 0 40 40" fill="none" xmlns="http://www.w3.org/2000/svg">
<path d="M20 40C31.0457 40 40 31.0457 40 20C40 8.9543 31.0457 0 20 0C8.9543 0 0 8.9543 0 20C0 31.0457 8.9543 40 20 40Z" fill="white" fill-opacity="0.2"/>
<path fill-rule="evenodd" clip-rule="evenodd" d="M27.8597 13.4055C28.6694 13.6198 29.3071 14.2479 29.5244 15.0439C29.9278 16.4968 29.909 19.526 29.909 19.526C29.909 19.526 29.9061 22.5385 29.515 23.9905C29.2948 24.7856 28.6543 25.4127 27.8455 25.6261C26.366 26.0065 20.4469 26 20.4469 26C20.4469 26 14.5439 25.9935 13.0492 25.5946C12.2386 25.3803 11.6009 24.7522 11.3836 23.9571C10.9962 22.519 11 19.4908 11 19.4908C11 19.4908 11.0038 16.4773 11.394 15.0244C11.6132 14.2293 12.2689 13.5873 13.0625 13.3749C14.543 12.9935 20.4611 13 20.4611 13C20.4611 13 26.3802 13.0065 27.8597 13.4055ZM18.572 16.7164L18.5673 22.283L23.4915 19.5043L18.572 16.7164Z" fill="white"/>
</svg>
